<svg width="40" height="48" viewBox="0 0 40 48" fill="none" xmlns="http://www.w3.org/2000/svg">
<rect width="40" height="48" rx="8" fill="#13141B"/>
<g opacity="0.6">
<path d="M20 35.2499C21.252 35.2499 22.2669 34.6514 22.2669 33.913C22.2669 33.1747 21.252 32.5762 20 32.5762C18.7481 32.5762 17.7332 33.1747 17.7332 33.913C17.7332 34.6514 18.7481 35.2499 20 35.2499Z" fill="#424242"/>
<path d="M20 12.75C16.0475 12.75 12.8412 15.6881 12.8412 19.3106C12.8412 20.2556 13.1262 21.2662 13.5444 22.1569C14.1312 23.4094 14.7706 24.3356 14.9581 24.6769C15.4794 25.6256 15.4044 26.625 15.5487 27.2512C15.8206 28.4212 16.6344 28.845 19.9981 28.845C23.3619 28.845 24.0856 28.4419 24.3875 27.3638C24.5937 26.6306 24.3931 25.83 24.9125 24.8831C25.1 24.5419 25.8631 23.4113 26.4519 22.1569C26.87 21.2662 27.155 20.2556 27.155 19.3106C27.1587 15.6881 23.9525 12.75 20 12.75Z" fill="#FFD600"/>
<path d="M20 28.9857C22.2719 28.9857 24.1137 28.6113 24.1137 28.1495C24.1137 27.6876 22.2719 27.3132 20 27.3132C17.728 27.3132 15.8862 27.6876 15.8862 28.1495C15.8862 28.6113 17.728 28.9857 20 28.9857Z" fill="#B26500"/>
<path d="M20 28.9857C22.2719 28.9857 24.1137 28.6113 24.1137 28.1495C24.1137 27.6876 22.2719 27.3132 20 27.3132C17.728 27.3132 15.8862 27.6876 15.8862 28.1495C15.8862 28.6113 17.728 28.9857 20 28.9857Z" fill="#B26500"/>
<path d="M20 28.5357C21.6558 28.5357 22.9981 28.3628 22.9981 28.1494C22.9981 27.9361 21.6558 27.7632 20 27.7632C18.3442 27.7632 17.0019 27.9361 17.0019 28.1494C17.0019 28.3628 18.3442 28.5357 20 28.5357Z" fill="#FFA000"/>
<path d="M17.9938 22.6443C17.8775 22.9368 17.5756 23.5387 17.7331 23.8087C18.0988 24.4368 18.9706 24.6618 18.9706 25.2393C18.9706 26.1206 18.3294 28.9762 18.3294 28.9762M21.8806 22.5393C21.8806 22.5393 22.3006 23.4393 22.1225 23.8424C21.9894 24.1424 21.1888 24.6262 21.0856 24.7068C20.6075 25.0818 21.2431 28.9781 21.2431 28.9781" stroke="#B26500" stroke-width="0.375" stroke-miterlimit="10"/>
<path d="M17.9938 22.6443C18.6388 21.3693 18.9707 18.4593 18.1513 18.6075C16.7694 18.8568 18.4719 23.6381 19.31 23.0887C20.1482 22.5393 21.1869 18.6168 19.9119 18.6018C18.6369 18.5868 19.9982 23.6006 20.8644 23.0437C21.5488 22.6031 23.2194 18.6075 21.8469 18.6075C20.6788 18.6075 21.8825 22.5393 21.8825 22.5393" stroke="white" stroke-width="0.375" stroke-miterlimit="10"/>
<path d="M24.1044 28.3237C24.1044 28.3237 23.0244 28.845 20 28.845C16.9756 28.845 15.8956 28.3237 15.8956 28.3237C15.8956 28.3237 15.8281 29.2875 16.0513 29.7244C16.3194 30.2494 16.5256 30.4312 16.5256 30.4312L16.6381 30.9656L16.5931 31.1062C16.535 31.29 16.5763 31.4925 16.7056 31.6369L16.8031 31.7456L16.9119 32.2594L16.8744 32.3625C16.8031 32.5594 16.8519 32.7787 16.9981 32.9287L17.0694 33.0019L17.1575 33.4219C17.1575 33.4219 17.6038 34.3744 20 34.3744C22.3963 34.3744 22.8425 33.4219 22.8425 33.4219L22.85 33.3862L22.8988 33.3375C22.9963 33.2419 23.0281 33.0994 22.9813 32.9719L22.9531 32.8987L23.0694 32.3437L23.2738 32.1281C23.375 32.0212 23.3975 31.8637 23.3319 31.7325L23.2381 31.5469L23.3563 30.99L23.4313 30.9319C23.5419 30.81 23.5438 30.6262 23.495 30.5006C23.4575 30.4012 23.4875 30.2887 23.5644 30.2156C23.6825 30.1031 23.8344 29.9325 23.9469 29.7206C24.1775 29.2912 24.1044 28.3237 24.1044 28.3237Z" fill="#82AEC0"/>
<path d="M16.5256 30.4314L16.6269 30.9695C17.7181 30.9639 19.175 31.0182 21.9706 30.5739C22.475 30.4595 23.0806 30.2326 22.4113 30.3264C22.4113 30.3245 19.8444 30.5701 16.5256 30.4314ZM16.9006 32.2632C18.1081 32.2426 20.5756 32.1226 23.2269 31.547L23.345 30.9901C20.5719 31.6201 17.9638 31.7326 16.7919 31.7476L16.9006 32.2632ZM23.0581 32.342C20.6038 32.8745 18.3069 33.0114 17.0638 33.0414L17.1444 33.4239C17.1444 33.4239 17.1838 34.6107 19.9869 34.6107C22.79 34.6107 22.8294 33.4239 22.8294 33.4239C22.8294 33.4239 21.6331 33.7651 20.1613 33.5982C20.1457 33.5984 20.1304 33.5954 20.116 33.5896C20.1016 33.5838 20.0885 33.5752 20.0775 33.5643C20.0551 33.5423 20.0424 33.5124 20.0422 33.4811C20.0419 33.4497 20.0542 33.4196 20.0761 33.3973C20.0981 33.3749 20.1281 33.3622 20.1594 33.362C21.0388 33.2457 22.0888 33.0732 22.9419 32.897L23.0581 32.342Z" fill="#2F7889"/>
<path d="M15.9088 28.3237C15.9088 28.3237 17.12 28.845 19.9888 28.845C22.8575 28.845 24.0913 28.3237 24.0913 28.3237" stroke="#82AEC0" stroke-width="0.749438" stroke-miterlimit="10" stroke-linecap="round"/>
<path d="M17.3525 13.935C18.0856 13.755 18.8525 13.845 19.3775 14.4825C19.5256 14.6625 19.64 14.8762 19.6663 15.1087C19.7188 15.5569 19.4413 15.9806 19.1113 16.2919C18.17 17.1806 16.8331 17.6119 16.2256 18.8381C16.0831 19.125 15.9706 19.4344 15.7531 19.6687C15.5356 19.9031 15.1738 20.0456 14.8906 19.8956C14.7406 19.8169 14.6375 19.6687 14.5531 19.5206C14.0206 18.5719 14.06 17.3625 14.5288 16.38C15.0444 15.3037 16.175 14.2237 17.3525 13.935Z" fill="#FFFF8D"/>
<path d="M16.7094 29.237C16.5444 29.162 16.61 28.9145 16.79 28.9276C17.3937 28.9745 18.4212 29.0326 19.7806 29.0326C21.2131 29.0326 22.4731 28.9257 23.2081 28.847C23.39 28.8282 23.4594 29.0776 23.2925 29.1545C22.7262 29.4207 21.6894 29.7245 19.9119 29.7245C18.1775 29.7245 17.2212 29.4676 16.7094 29.237Z" fill="#FFD600"/>
<path d="M17.7387 31.1306C17.6131 31.1756 17.4837 31.2375 17.42 31.3537C17.3975 31.3969 17.3844 31.4456 17.3937 31.4944C17.4087 31.5656 17.4744 31.6162 17.54 31.6481C17.6712 31.7119 17.8194 31.7287 17.9637 31.7306C18.2619 31.7344 18.5581 31.6781 18.8525 31.6219C18.9406 31.605 19.0306 31.5881 19.1094 31.545C19.1881 31.5019 19.2556 31.4287 19.2687 31.3406C19.2875 31.2225 19.2031 31.1081 19.1 31.0519C18.7437 30.855 18.0987 31.0012 17.7387 31.1306ZM18.0181 32.3662C17.8925 32.4112 17.7631 32.4731 17.6994 32.5894C17.6769 32.6325 17.6637 32.6812 17.6731 32.73C17.6881 32.8012 17.7537 32.8519 17.8194 32.8837C17.9506 32.9475 18.0987 32.9644 18.2431 32.9662C18.5412 32.97 18.8375 32.9137 19.1319 32.8575C19.22 32.8406 19.31 32.8237 19.3887 32.7806C19.4675 32.7375 19.535 32.6644 19.5481 32.5762C19.5669 32.4581 19.4825 32.3437 19.3794 32.2875C19.0231 32.0925 18.3762 32.2387 18.0181 32.3662Z" fill="#94D1E0"/>
<path d="M17.3769 27.7875C17.5475 27.8044 17.7275 27.7894 17.8719 27.6975C18.0162 27.6056 18.1081 27.4181 18.05 27.2569C18.02 27.1725 17.9544 27.105 17.8906 27.0413C17.75 26.9025 17.6094 26.7638 17.4706 26.625C17.315 26.4694 17.1594 26.3156 16.9906 26.175C16.73 25.9575 16.3794 25.7531 16.0362 25.9125C15.7437 26.0475 15.6744 26.3138 15.8037 26.5931C16.0794 27.18 16.7206 27.72 17.3769 27.7875Z" fill="#FFFF8D"/>
</g>
</svg>
