<svg width="21" height="21" viewBox="0 0 21 21" fill="none" xmlns="http://www.w3.org/2000/svg">
<g opacity="0.6" clip-path="url(#clip0_4367_6218)">
<path d="M10.5614 20.1561C11.6222 20.1561 12.4822 19.649 12.4822 19.0234C12.4822 18.3978 11.6222 17.8906 10.5614 17.8906C9.50058 17.8906 8.64062 18.3978 8.64062 19.0234C8.64062 19.649 9.50058 20.1561 10.5614 20.1561Z" fill="#424242"/>
<path d="M10.5613 1.09131C7.21232 1.09131 4.49561 3.58084 4.49561 6.65025C4.49561 7.45096 4.73709 8.30728 5.09138 9.06193C5.58865 10.1232 6.1304 10.908 6.28927 11.1972C6.73094 12.0011 6.66739 12.8478 6.78972 13.3785C7.02008 14.3698 7.70959 14.7289 10.5598 14.7289C13.4099 14.7289 14.0232 14.3873 14.279 13.4738C14.4537 12.8526 14.2837 12.1742 14.7238 11.3719C14.8827 11.0828 15.5293 10.1248 16.0281 9.06193C16.3824 8.30728 16.6239 7.45096 16.6239 6.65025C16.6271 3.58084 13.9104 1.09131 10.5613 1.09131Z" fill="#FFD600"/>
<path d="M10.5613 14.8478C12.4864 14.8478 14.047 14.5306 14.047 14.1392C14.047 13.7479 12.4864 13.4307 10.5613 13.4307C8.63626 13.4307 7.07568 13.7479 7.07568 14.1392C7.07568 14.5306 8.63626 14.8478 10.5613 14.8478Z" fill="#B26500"/>
<path d="M10.5613 14.8478C12.4864 14.8478 14.047 14.5306 14.047 14.1392C14.047 13.7479 12.4864 13.4307 10.5613 13.4307C8.63626 13.4307 7.07568 13.7479 7.07568 14.1392C7.07568 14.5306 8.63626 14.8478 10.5613 14.8478Z" fill="#B26500"/>
<path d="M10.5614 14.4671C11.9644 14.4671 13.1017 14.3205 13.1017 14.1398C13.1017 13.959 11.9644 13.8125 10.5614 13.8125C9.15836 13.8125 8.021 13.959 8.021 14.1398C8.021 14.3205 9.15836 14.4671 10.5614 14.4671Z" fill="#FFA000"/>
<path d="M8.86135 9.4752C8.76285 9.72304 8.50707 10.233 8.64052 10.4618C8.95032 10.994 9.68908 11.1847 9.68908 11.674C9.68908 12.4207 9.14573 14.8403 9.14573 14.8403M12.1548 9.38623C12.1548 9.38623 12.5106 10.1488 12.3597 10.4904C12.2469 10.7446 11.5685 11.1545 11.4812 11.2228C11.076 11.5405 11.6146 14.8419 11.6146 14.8419" stroke="#B26500" stroke-width="0.317744" stroke-miterlimit="10"/>
<path d="M8.86127 9.47512C9.40779 8.39479 9.68899 5.92909 8.99472 6.0546C7.82383 6.2659 9.26639 10.3171 9.97655 9.85164C10.6867 9.38615 11.5669 6.06254 10.4865 6.04983C9.4062 6.03712 10.5596 10.2854 11.2936 9.81352C11.8735 9.44017 13.289 6.0546 12.1261 6.0546C11.1363 6.0546 12.1563 9.38615 12.1563 9.38615" stroke="white" stroke-width="0.317744" stroke-miterlimit="10"/>
<path d="M14.039 14.2871C14.039 14.2871 13.1239 14.7288 10.5613 14.7288C7.99867 14.7288 7.08357 14.2871 7.08357 14.2871C7.08357 14.2871 7.02637 15.1037 7.21543 15.4739C7.44262 15.9187 7.61738 16.0728 7.61738 16.0728L7.7127 16.5256L7.67457 16.6448C7.62532 16.8005 7.66027 16.9721 7.76989 17.0944L7.85251 17.1865L7.94465 17.6218L7.91288 17.7092C7.85251 17.876 7.89382 18.0619 8.01774 18.189L8.07811 18.251L8.15278 18.6068C8.15278 18.6068 8.53089 19.4139 10.5613 19.4139C12.5917 19.4139 12.9698 18.6068 12.9698 18.6068L12.9761 18.5767L13.0174 18.5354C13.1001 18.4543 13.1271 18.3336 13.0873 18.2256L13.0635 18.1636L13.162 17.6933L13.3352 17.5106C13.421 17.4201 13.44 17.2866 13.3844 17.1754L13.305 17.0181L13.4051 16.5463L13.4686 16.497C13.5624 16.3938 13.564 16.2381 13.5227 16.1316C13.4909 16.0474 13.5163 15.9521 13.5814 15.8901C13.6815 15.7948 13.8102 15.6502 13.9055 15.4707C14.101 15.1069 14.039 14.2871 14.039 14.2871Z" fill="#82AEC0"/>
<path d="M7.61743 16.0731L7.70322 16.529C8.62786 16.5243 9.8623 16.5704 12.2311 16.1938C12.6584 16.0969 13.1716 15.9047 12.6044 15.9841C12.6044 15.9825 10.4295 16.1906 7.61743 16.0731ZM7.93518 17.6253C8.95831 17.6078 11.0491 17.5061 13.2955 17.0184L13.3956 16.5465C11.0459 17.0803 8.83598 17.1757 7.84303 17.1884L7.93518 17.6253ZM13.1525 17.692C11.0729 18.1432 9.12672 18.2592 8.07339 18.2846L8.14171 18.6087C8.14171 18.6087 8.17507 19.6143 10.5502 19.6143C12.9254 19.6143 12.9587 18.6087 12.9587 18.6087C12.9587 18.6087 11.9451 18.8978 10.698 18.7564C10.6848 18.7565 10.6718 18.7541 10.6596 18.7491C10.6474 18.7442 10.6363 18.7369 10.627 18.7277C10.608 18.7091 10.5973 18.6837 10.5971 18.6571C10.5969 18.6306 10.6072 18.6051 10.6258 18.5861C10.6445 18.5672 10.6698 18.5565 10.6964 18.5563C11.4415 18.4578 12.3312 18.3116 13.054 18.1623L13.1525 17.692Z" fill="#2F7889"/>
<path d="M7.09473 14.2871C7.09473 14.2871 8.12104 14.7288 10.5518 14.7288C12.9825 14.7288 14.0279 14.2871 14.0279 14.2871" stroke="#82AEC0" stroke-width="0.635012" stroke-miterlimit="10" stroke-linecap="round"/>
<path d="M8.31812 2.0956C8.93931 1.94309 9.5891 2.01934 10.0339 2.55951C10.1595 2.71203 10.2564 2.89314 10.2786 3.09014C10.3231 3.46985 10.088 3.8289 9.80834 4.09263C9.01081 4.84568 7.87805 5.21109 7.3633 6.25011C7.24256 6.49319 7.14724 6.75532 6.96294 6.95391C6.77865 7.15251 6.47203 7.27325 6.23213 7.14615C6.10503 7.07942 6.01765 6.95391 5.94616 6.82841C5.49496 6.02451 5.52833 4.99979 5.92551 4.1673C6.36241 3.25537 7.32041 2.34027 8.31812 2.0956Z" fill="#FFFF8D"/>
<path d="M7.77315 15.0608C7.63334 14.9972 7.68895 14.7875 7.84146 14.7987C8.35303 14.8384 9.22365 14.8876 10.3755 14.8876C11.5893 14.8876 12.6569 14.7971 13.2797 14.7303C13.4338 14.7145 13.4925 14.9258 13.3512 14.9909C12.8714 15.2165 11.9928 15.4739 10.4867 15.4739C9.01712 15.4739 8.20687 15.2562 7.77315 15.0608Z" fill="#FFD600"/>
<path d="M8.64526 16.6657C8.53882 16.7038 8.42919 16.7563 8.37518 16.8548C8.35611 16.8913 8.34499 16.9326 8.35294 16.9739C8.36564 17.0343 8.42125 17.0772 8.47686 17.1042C8.58807 17.1582 8.71358 17.1725 8.83591 17.1741C9.08851 17.1773 9.33953 17.1296 9.58896 17.0819C9.66363 17.0676 9.73989 17.0533 9.80662 17.0168C9.87334 16.9803 9.93054 16.9183 9.94166 16.8436C9.95754 16.7435 9.88605 16.6466 9.79867 16.599C9.49682 16.4322 8.95029 16.5561 8.64526 16.6657ZM8.88198 17.7127C8.77554 17.7508 8.66591 17.8032 8.6119 17.9017C8.59283 17.9383 8.58171 17.9796 8.58965 18.0209C8.60236 18.0812 8.65797 18.1241 8.71358 18.1512C8.82479 18.2052 8.95029 18.2195 9.07263 18.2211C9.32523 18.2242 9.57625 18.1766 9.82568 18.1289C9.90035 18.1146 9.97661 18.1003 10.0433 18.0638C10.1101 18.0272 10.1673 17.9653 10.1784 17.8906C10.1943 17.7905 10.1228 17.6936 10.0354 17.6459C9.73353 17.4807 9.18543 17.6046 8.88198 17.7127Z" fill="#94D1E0"/>
<path d="M8.33889 13.8327C8.48346 13.847 8.63598 13.8342 8.75831 13.7564C8.88064 13.6786 8.95849 13.5197 8.90924 13.383C8.88382 13.3116 8.82822 13.2544 8.7742 13.2003C8.65505 13.0828 8.53589 12.9652 8.41833 12.8476C8.28646 12.7158 8.1546 12.5855 8.01161 12.4664C7.79078 12.2821 7.49369 12.1089 7.20295 12.2439C6.95511 12.3583 6.89633 12.5839 7.00595 12.8206C7.23949 13.3179 7.78284 13.7755 8.33889 13.8327Z" fill="#FFFF8D"/>
</g>
<defs>
<clipPath id="clip0_4367_6218">
<rect width="20.3356" height="20.3356" fill="white" transform="translate(0.393555 0.456055)"/>
</clipPath>
</defs>
</svg>
