<svg width="50" height="48" viewBox="0 0 50 48" fill="none" xmlns="http://www.w3.org/2000/svg">
<rect width="40" height="48" rx="8" fill="#13141B"/>
<path d="M20 35.25C21.252 35.25 22.2669 34.6515 22.2669 33.9132C22.2669 33.1748 21.252 32.5763 20 32.5763C18.7481 32.5763 17.7332 33.1748 17.7332 33.9132C17.7332 34.6515 18.7481 35.25 20 35.25Z" fill="#424242"/>
<path d="M20.0001 12.75C16.0476 12.75 12.8413 15.6881 12.8413 19.3106C12.8413 20.2556 13.1263 21.2662 13.5444 22.1569C14.1313 23.4094 14.7707 24.3356 14.9582 24.6769C15.4794 25.6256 15.4044 26.625 15.5488 27.2512C15.8207 28.4212 16.6344 28.845 19.9982 28.845C23.3619 28.845 24.0857 28.4419 24.3876 27.3638C24.5938 26.6306 24.3932 25.83 24.9126 24.8831C25.1001 24.5419 25.8632 23.4113 26.4519 22.1569C26.8701 21.2662 27.1551 20.2556 27.1551 19.3106C27.1588 15.6881 23.9526 12.75 20.0001 12.75Z" fill="#FFD600"/>
<path d="M20 28.9856C22.2719 28.9856 24.1137 28.6112 24.1137 28.1494C24.1137 27.6875 22.2719 27.3131 20 27.3131C17.728 27.3131 15.8862 27.6875 15.8862 28.1494C15.8862 28.6112 17.728 28.9856 20 28.9856Z" fill="#B26500"/>
<path d="M20 28.9856C22.2719 28.9856 24.1137 28.6112 24.1137 28.1494C24.1137 27.6875 22.2719 27.3131 20 27.3131C17.728 27.3131 15.8862 27.6875 15.8862 28.1494C15.8862 28.6112 17.728 28.9856 20 28.9856Z" fill="#B26500"/>
<path d="M20.0001 28.5357C21.6559 28.5357 22.9982 28.3628 22.9982 28.1494C22.9982 27.9361 21.6559 27.7632 20.0001 27.7632C18.3443 27.7632 17.002 27.9361 17.002 28.1494C17.002 28.3628 18.3443 28.5357 20.0001 28.5357Z" fill="#FFA000"/>
<path d="M17.9936 22.6443C17.8774 22.9368 17.5755 23.5387 17.733 23.8087C18.0986 24.4368 18.9705 24.6618 18.9705 25.2393C18.9705 26.1206 18.3293 28.9762 18.3293 28.9762M21.8805 22.5393C21.8805 22.5393 22.3005 23.4393 22.1224 23.8424C21.9893 24.1424 21.1886 24.6262 21.0855 24.7068C20.6074 25.0818 21.243 28.9781 21.243 28.9781" stroke="#B26500" stroke-width="0.375" stroke-miterlimit="10"/>
<path d="M17.9937 22.6443C18.6387 21.3693 18.9705 18.4593 18.1512 18.6075C16.7693 18.8568 18.4718 23.6381 19.3099 23.0887C20.148 22.5393 21.1868 18.6168 19.9118 18.6018C18.6368 18.5868 19.998 23.6006 20.8643 23.0437C21.5487 22.6031 23.2193 18.6075 21.8468 18.6075C20.6787 18.6075 21.8824 22.5393 21.8824 22.5393" stroke="white" stroke-width="0.375" stroke-miterlimit="10"/>
<path d="M24.1043 28.3237C24.1043 28.3237 23.0243 28.845 20 28.845C16.9756 28.845 15.8956 28.3237 15.8956 28.3237C15.8956 28.3237 15.8281 29.2875 16.0512 29.7244C16.3193 30.2494 16.5256 30.4312 16.5256 30.4312L16.6381 30.9656L16.5931 31.1062C16.535 31.29 16.5762 31.4925 16.7056 31.6369L16.8031 31.7456L16.9118 32.2594L16.8743 32.3625C16.8031 32.5594 16.8518 32.7787 16.9981 32.9287L17.0693 33.0019L17.1575 33.4219C17.1575 33.4219 17.6037 34.3744 20 34.3744C22.3962 34.3744 22.8425 33.4219 22.8425 33.4219L22.85 33.3862L22.8987 33.3375C22.9962 33.2419 23.0281 33.0994 22.9812 32.9719L22.9531 32.8987L23.0693 32.3437L23.2737 32.1281C23.375 32.0212 23.3975 31.8637 23.3318 31.7325L23.2381 31.5469L23.3562 30.99L23.4312 30.9319C23.5418 30.81 23.5437 30.6262 23.495 30.5006C23.4575 30.4012 23.4875 30.2887 23.5643 30.2156C23.6825 30.1031 23.8343 29.9325 23.9468 29.7206C24.1775 29.2912 24.1043 28.3237 24.1043 28.3237Z" fill="#82AEC0"/>
<path d="M16.5256 30.4312L16.6269 30.9694C17.7181 30.9637 19.175 31.0181 21.9706 30.5737C22.475 30.4594 23.0806 30.2325 22.4113 30.3262C22.4113 30.3244 19.8444 30.57 16.5256 30.4312ZM16.9006 32.2631C18.1081 32.2425 20.5756 32.1225 23.2269 31.5469L23.345 30.99C20.5719 31.62 17.9638 31.7325 16.7919 31.7475L16.9006 32.2631ZM23.0581 32.3419C20.6038 32.8744 18.3069 33.0112 17.0638 33.0412L17.1444 33.4237C17.1444 33.4237 17.1838 34.6106 19.9869 34.6106C22.79 34.6106 22.8294 33.4237 22.8294 33.4237C22.8294 33.4237 21.6331 33.765 20.1613 33.5981C20.1457 33.5982 20.1304 33.5953 20.116 33.5895C20.1016 33.5837 20.0885 33.5751 20.0775 33.5642C20.0551 33.5422 20.0424 33.5123 20.0422 33.4809C20.0419 33.4496 20.0542 33.4195 20.0761 33.3971C20.0981 33.3748 20.1281 33.3621 20.1594 33.3619C21.0388 33.2456 22.0888 33.0731 22.9419 32.8969L23.0581 32.3419Z" fill="#2F7889"/>
<path d="M15.9087 28.3237C15.9087 28.3237 17.1199 28.845 19.9887 28.845C22.8574 28.845 24.0912 28.3237 24.0912 28.3237" stroke="#82AEC0" stroke-width="0.749438" stroke-miterlimit="10" stroke-linecap="round"/>
<path d="M17.3526 13.935C18.0857 13.755 18.8526 13.845 19.3776 14.4825C19.5257 14.6625 19.6401 14.8762 19.6663 15.1087C19.7188 15.5569 19.4413 15.9806 19.1113 16.2919C18.1701 17.1806 16.8332 17.6119 16.2257 18.8381C16.0832 19.125 15.9707 19.4344 15.7532 19.6687C15.5357 19.9031 15.1738 20.0456 14.8907 19.8956C14.7407 19.8169 14.6376 19.6687 14.5532 19.5206C14.0207 18.5719 14.0601 17.3625 14.5288 16.38C15.0445 15.3037 16.1751 14.2237 17.3526 13.935Z" fill="#FFFF8D"/>
<path d="M16.7095 29.2368C16.5445 29.1618 16.6101 28.9143 16.7901 28.9275C17.3939 28.9743 18.4214 29.0325 19.7807 29.0325C21.2132 29.0325 22.4732 28.9256 23.2082 28.8468C23.3901 28.8281 23.4595 29.0775 23.2926 29.1543C22.7264 29.4206 21.6895 29.7243 19.912 29.7243C18.1776 29.7243 17.2214 29.4675 16.7095 29.2368Z" fill="#FFD600"/>
<path d="M17.7387 31.1306C17.6131 31.1756 17.4837 31.2375 17.4199 31.3537C17.3974 31.3969 17.3843 31.4456 17.3937 31.4944C17.4087 31.5656 17.4743 31.6162 17.5399 31.6481C17.6712 31.7119 17.8193 31.7287 17.9637 31.7306C18.2618 31.7344 18.5581 31.6781 18.8524 31.6219C18.9406 31.605 19.0306 31.5881 19.1093 31.545C19.1881 31.5019 19.2556 31.4287 19.2687 31.3406C19.2874 31.2225 19.2031 31.1081 19.0999 31.0519C18.7437 30.855 18.0987 31.0012 17.7387 31.1306ZM18.0181 32.3662C17.8924 32.4112 17.7631 32.4731 17.6993 32.5894C17.6768 32.6325 17.6637 32.6812 17.6731 32.73C17.6881 32.8012 17.7537 32.8519 17.8193 32.8837C17.9506 32.9475 18.0987 32.9644 18.2431 32.9662C18.5412 32.97 18.8374 32.9137 19.1318 32.8575C19.2199 32.8406 19.3099 32.8237 19.3887 32.7806C19.4674 32.7375 19.5349 32.6644 19.5481 32.5762C19.5668 32.4581 19.4824 32.3437 19.3793 32.2875C19.0231 32.0925 18.3762 32.2387 18.0181 32.3662Z" fill="#94D1E0"/>
<path d="M17.3769 27.7875C17.5476 27.8044 17.7276 27.7894 17.8719 27.6975C18.0163 27.6056 18.1082 27.4181 18.0501 27.2569C18.0201 27.1725 17.9544 27.105 17.8907 27.0413C17.7501 26.9025 17.6094 26.7638 17.4707 26.625C17.3151 26.4694 17.1594 26.3156 16.9907 26.175C16.7301 25.9575 16.3794 25.7531 16.0363 25.9125C15.7438 26.0475 15.6744 26.3138 15.8038 26.5931C16.0794 27.18 16.7207 27.72 17.3769 27.7875Z" fill="#FFFF8D"/>
<path d="M30.7 28V20.8H31.745V23.905H35.345V20.8H36.395V28H35.345V24.89H31.745V28H30.7ZM37.8996 21.715V20.7H38.9446V21.715H37.8996ZM37.8996 28V22.6H38.9446V28H37.8996ZM44.2361 28V25.345C44.2361 25.135 44.2178 24.92 44.1811 24.7C44.1478 24.4767 44.0811 24.27 43.9811 24.08C43.8844 23.89 43.7461 23.7367 43.5661 23.62C43.3894 23.5033 43.1578 23.445 42.8711 23.445C42.6844 23.445 42.5078 23.4767 42.3411 23.54C42.1744 23.6 42.0278 23.6983 41.9011 23.835C41.7778 23.9717 41.6794 24.1517 41.6061 24.375C41.5361 24.5983 41.5011 24.87 41.5011 25.19L40.8511 24.945C40.8511 24.455 40.9428 24.0233 41.1261 23.65C41.3094 23.2733 41.5728 22.98 41.9161 22.77C42.2594 22.56 42.6744 22.455 43.1611 22.455C43.5344 22.455 43.8478 22.515 44.1011 22.635C44.3544 22.755 44.5594 22.9133 44.7161 23.11C44.8761 23.3033 44.9978 23.515 45.0811 23.745C45.1644 23.975 45.2211 24.2 45.2511 24.42C45.2811 24.64 45.2961 24.8333 45.2961 25V28H44.2361ZM40.4411 28V22.6H41.3761V24.16H41.5011V28H40.4411ZM49.6884 28C49.3484 28.0667 49.0151 28.095 48.6884 28.085C48.3618 28.075 48.0701 28.0117 47.8134 27.895C47.5568 27.7783 47.3634 27.595 47.2334 27.345C47.1168 27.1217 47.0534 26.895 47.0434 26.665C47.0368 26.4317 47.0334 26.1683 47.0334 25.875V21.1H48.0834V25.825C48.0834 26.0417 48.0851 26.23 48.0884 26.39C48.0951 26.55 48.1301 26.685 48.1934 26.795C48.3134 27.0017 48.5034 27.12 48.7634 27.15C49.0268 27.1767 49.3351 27.165 49.6884 27.115V28ZM45.9984 23.44V22.6H49.6884V23.44H45.9984Z" fill="#FFD600"/>
</svg>
