<svg width="182" height="134" viewBox="0 0 182 134" fill="none" xmlns="http://www.w3.org/2000/svg">
<g clip-path="url(#clip0_4479_39036)">
<path d="M19.8359 56.4076C22.1111 58.6827 25.1969 59.9609 28.4145 59.9609C30.8317 59.9609 33.1745 59.2394 35.1551 57.9159L26.5187 66.5524C24.2435 68.8276 22.9653 71.9134 22.9653 75.131C22.9653 78.3486 24.2434 81.4343 26.5187 83.7095C28.7938 85.9847 31.8796 87.2629 35.0972 87.2629C37.5144 87.2629 39.8571 86.5414 41.8377 85.2179L37.3051 89.7505C35.0299 92.0257 33.7518 95.1115 33.7518 98.3291C33.7518 101.547 35.0299 104.632 37.3051 106.908C39.5803 109.183 42.6661 110.461 45.8837 110.461C48.3009 110.461 50.6435 109.74 52.6242 108.416L51.5169 109.523C49.2417 111.799 47.9635 114.884 47.9635 118.102C47.9635 121.32 49.2417 124.405 51.5169 126.681C53.792 128.956 56.8779 130.234 60.0955 130.234C63.3131 130.234 66.3989 128.956 68.6741 126.681L80.1706 115.184C78.8471 117.165 78.1256 119.507 78.1256 121.925C78.1256 125.142 79.4038 128.228 81.679 130.503C83.9542 132.778 87.04 134.057 90.2576 134.057C93.4751 134.057 96.561 132.778 98.8361 130.503L116.304 113.035C114.981 115.016 114.259 117.359 114.259 119.776C114.259 122.993 115.537 126.079 117.812 128.354C120.088 130.63 123.173 131.908 126.391 131.908C129.609 131.908 132.694 130.63 134.97 128.354L162.164 101.16C164.439 98.8851 165.717 95.7993 165.717 92.5816C165.717 89.3641 164.439 86.2783 162.164 84.0031C159.889 81.7279 156.803 80.4497 153.585 80.4497C151.168 80.4497 148.825 81.1712 146.845 82.4946L152.537 76.8021C154.812 74.5269 156.091 71.4411 156.091 68.2235C156.091 65.006 154.812 61.9202 152.537 59.645C150.262 57.3698 147.176 56.0916 143.959 56.0916C141.541 56.0916 139.199 56.8131 137.218 58.1366L148.715 46.64C150.99 44.3648 152.268 41.279 152.268 38.0614C152.268 34.8438 150.99 31.758 148.715 29.4828C146.44 27.2077 143.354 25.9294 140.136 25.9294C137.719 25.9294 135.376 26.6508 133.396 27.9743L140.717 20.6529C142.992 18.3778 144.27 15.2919 144.27 12.0743C144.27 8.8567 142.992 5.77089 140.717 3.49575C138.442 1.22057 135.356 -0.0576172 132.138 -0.0576172C128.921 -0.0576172 125.835 1.22057 123.56 3.49575L107.252 19.8036C108.575 17.823 109.297 15.4803 109.297 13.0632C109.297 9.84559 108.019 6.75974 105.744 4.4846C103.468 2.20942 100.383 0.931188 97.165 0.931188C93.9474 0.931188 90.8616 2.20937 88.5864 4.4846L65.6957 27.3754C67.0192 25.3947 67.7407 23.052 67.7407 20.6348C67.7407 17.4172 66.4625 14.3313 64.1873 12.0562C61.9121 9.78103 58.8263 8.50284 55.6087 8.50284C52.3911 8.50284 49.3053 9.78103 47.0302 12.0562L19.836 39.2504C17.5608 41.5256 16.2826 44.6114 16.2826 47.8289C16.2826 51.0465 17.5608 54.1324 19.8359 56.4076Z" fill="white"/>
<path d="M150.867 96.9836L150.028 97.823C149.699 98.1511 149.699 98.6831 150.028 99.0112C150.356 99.3393 150.888 99.3393 151.216 99.0112L152.055 98.1718L152.894 99.0112C153.223 99.3393 153.755 99.3393 154.083 99.0112C154.411 98.6831 154.411 98.1511 154.083 97.823L153.243 96.9836L154.083 96.1442C154.411 95.8161 154.411 95.2841 154.083 94.956C153.919 94.792 153.704 94.71 153.489 94.71C153.274 94.71 153.059 94.792 152.894 94.956L152.055 95.7954L151.216 94.956C151.052 94.792 150.837 94.71 150.622 94.71C150.407 94.71 150.192 94.792 150.028 94.956C149.699 95.2841 149.699 95.8161 150.028 96.1442L150.867 96.9836Z" fill="white"/>
<path d="M23.9311 51.7961L23.0917 52.6355C22.7636 52.9636 22.7636 53.4956 23.0917 53.8237C23.4198 54.1518 23.9517 54.1518 24.2799 53.8237L25.1193 52.9843L25.9586 53.8237C26.2867 54.1518 26.8187 54.1518 27.1468 53.8237C27.4749 53.4956 27.4749 52.9636 27.1468 52.6355L26.3074 51.7961L27.1468 50.9567C27.4749 50.6286 27.4749 50.0967 27.1468 49.7685C26.9828 49.6045 26.7678 49.5225 26.5527 49.5225C26.3377 49.5225 26.1227 49.6045 25.9586 49.7685L25.1193 50.6079L24.2799 49.7685C24.1158 49.6045 23.9008 49.5225 23.6858 49.5225C23.4708 49.5225 23.2558 49.6045 23.0917 49.7685C22.7636 50.0966 22.7636 50.6286 23.0917 50.9567L23.9311 51.7961Z" fill="white"/>
<path d="M124.968 8.6545L124.128 9.49388C123.8 9.82198 123.8 10.354 124.128 10.6821C124.457 11.0102 124.988 11.0102 125.317 10.6821L126.156 9.84268L126.995 10.6821C127.323 11.0102 127.855 11.0102 128.184 10.6821C128.512 10.354 128.512 9.82198 128.184 9.49388L127.344 8.6545L128.184 7.81511C128.512 7.48701 128.512 6.95502 128.184 6.62692C128.02 6.4629 127.804 6.38086 127.589 6.38086C127.374 6.38086 127.159 6.4629 126.995 6.62692L126.156 7.46631L125.317 6.62692C125.153 6.4629 124.938 6.38086 124.723 6.38086C124.507 6.38086 124.293 6.4629 124.128 6.62692C123.8 6.95502 123.8 7.48701 124.128 7.81511L124.968 8.6545Z" fill="white"/>
<path d="M53.1121 9.78223C54.4654 9.78223 55.5663 10.8832 55.5663 12.2365C55.5663 13.5897 54.4654 14.6907 53.1121 14.6907C51.7588 14.6907 50.6579 13.5897 50.6579 12.2365C50.6579 10.8832 51.7589 9.78223 53.1121 9.78223ZM53.1121 13.0104C53.5388 13.0104 53.886 12.6632 53.886 12.2365C53.886 11.8098 53.5388 11.4626 53.1121 11.4626C52.6853 11.4626 52.3382 11.8098 52.3382 12.2365C52.3382 12.6632 52.6854 13.0104 53.1121 13.0104Z" fill="white"/>
<path d="M19.8359 56.4076C22.1111 58.6827 25.1969 59.9609 28.4145 59.9609C30.8317 59.9609 33.1745 59.2394 35.1551 57.9159L26.5187 66.5524C24.2435 68.8276 22.9653 71.9134 22.9653 75.131C22.9653 78.3486 24.2434 81.4343 26.5187 83.7095C28.7938 85.9847 31.8796 87.2629 35.0972 87.2629C37.5144 87.2629 39.8571 86.5414 41.8377 85.2179L37.3051 89.7505C35.0299 92.0257 33.7518 95.1115 33.7518 98.3291C33.7518 101.547 35.0299 104.632 37.3051 106.908C39.5803 109.183 42.6661 110.461 45.8837 110.461C48.3009 110.461 50.6435 109.74 52.6242 108.416L51.5169 109.523C49.2417 111.799 47.9635 114.884 47.9635 118.102C47.9635 121.32 49.2417 124.405 51.5169 126.681C53.792 128.956 56.8779 130.234 60.0955 130.234C63.3131 130.234 66.3989 128.956 68.6741 126.681L80.1706 115.184C78.8471 117.165 78.1256 119.507 78.1256 121.925C78.1256 125.142 79.4038 128.228 81.679 130.503C83.9542 132.778 87.04 134.057 90.2576 134.057C93.4751 134.057 96.561 132.778 98.8361 130.503L116.304 113.035C114.981 115.016 114.259 117.359 114.259 119.776C114.259 122.993 115.537 126.079 117.812 128.354C120.088 130.63 123.173 131.908 126.391 131.908C129.609 131.908 132.694 130.63 134.97 128.354L162.164 101.16C164.439 98.8851 165.717 95.7993 165.717 92.5816C165.717 89.3641 164.439 86.2783 162.164 84.0031C159.889 81.7279 156.803 80.4497 153.585 80.4497C151.168 80.4497 148.825 81.1712 146.845 82.4946L152.537 76.8021C154.812 74.5269 156.091 71.4411 156.091 68.2235C156.091 65.006 154.812 61.9202 152.537 59.645C150.262 57.3698 147.176 56.0916 143.959 56.0916C141.541 56.0916 139.199 56.8131 137.218 58.1366L148.715 46.64C150.99 44.3648 152.268 41.279 152.268 38.0614C152.268 34.8438 150.99 31.758 148.715 29.4828C146.44 27.2077 143.354 25.9294 140.136 25.9294C137.719 25.9294 135.376 26.6508 133.396 27.9743L140.717 20.6529C142.992 18.3778 144.27 15.2919 144.27 12.0743C144.27 8.8567 142.992 5.77089 140.717 3.49575C138.442 1.22057 135.356 -0.0576172 132.138 -0.0576172C128.921 -0.0576172 125.835 1.22057 123.56 3.49575L107.252 19.8036C108.575 17.823 109.297 15.4803 109.297 13.0632C109.297 9.84559 108.019 6.75974 105.744 4.4846C103.468 2.20942 100.383 0.931188 97.165 0.931188C93.9474 0.931188 90.8616 2.20937 88.5864 4.4846L65.6957 27.3754C67.0192 25.3947 67.7407 23.052 67.7407 20.6348C67.7407 17.4172 66.4625 14.3313 64.1873 12.0562C61.9121 9.78103 58.8263 8.50284 55.6087 8.50284C52.3911 8.50284 49.3053 9.78103 47.0302 12.0562L19.836 39.2504C17.5608 41.5256 16.2826 44.6114 16.2826 47.8289C16.2826 51.0465 17.5608 54.1324 19.8359 56.4076Z" fill="#242833"/>
<path d="M40.0614 81.9127C37.9312 81.9127 36.1982 80.1763 36.1982 78.0419V73.2685C36.1982 66.8596 40.0015 61.0257 45.8876 58.406L46.4224 58.168L46.8317 58.5865C49.2861 61.0965 52.5705 62.4788 56.0798 62.4787C59.5905 62.4787 62.8756 61.0964 65.33 58.5865L65.7393 58.168L66.2741 58.406C68.8386 59.5473 71.0831 61.3481 72.7648 63.6133L73.3118 64.35L72.5308 64.8316C67.397 67.997 63.6464 72.9078 61.9699 78.6594L61.7702 79.3443L61.0619 79.2597C59.4195 79.0635 57.7432 78.9639 56.0796 78.9639C51.0141 78.9639 45.9618 79.8912 41.4687 81.6455C41.0144 81.8228 40.5409 81.9127 40.0614 81.9127Z" fill="#DDDDDD"/>
<path d="M56.0809 59.0541C52.9333 59.0541 49.9738 57.8283 47.7477 55.6026C45.5212 53.3765 44.295 50.4166 44.295 47.2682C44.295 44.1201 45.521 41.1605 47.747 38.9344C49.9731 36.7084 52.9328 35.4824 56.0809 35.4824C59.229 35.4824 62.1887 36.7084 64.4147 38.9344C66.6407 41.1605 67.8667 44.1201 67.8667 47.2682C67.8667 50.4166 66.6405 53.3764 64.4141 55.6025C62.188 57.8283 59.2285 59.0541 56.0809 59.0541Z" fill="url(#paint0_linear_4479_39036)"/>
<path d="M67.7154 42.3524C67.1853 41.0989 66.4646 39.9523 65.5683 38.934C65.389 38.7306 65.2029 38.5322 65.01 38.3393C63.8507 37.18 62.5007 36.27 60.9964 35.6339C59.4385 34.9746 57.7851 34.6406 56.0811 34.6406C54.3771 34.6406 52.7232 34.9746 51.1653 35.6339C49.661 36.27 48.311 37.18 47.1517 38.3393C45.9928 39.4982 45.0824 40.8486 44.4463 42.3524C43.7874 43.9103 43.4535 45.5643 43.4535 47.2682C43.4535 48.9722 43.7874 50.6266 44.4467 52.1845C45.0828 53.6883 45.9933 55.0387 47.1526 56.1976C47.3446 56.3896 47.5416 56.5748 47.7441 56.7527C48.7633 57.6509 49.9108 58.3721 51.1657 58.903C52.7236 59.5619 54.3771 59.8959 56.0811 59.8959C57.7846 59.8959 59.4381 59.5619 60.996 58.903C62.4998 58.267 63.8502 57.357 65.0091 56.1976C66.1684 55.0387 67.0789 53.6883 67.715 52.1845C68.3743 50.6266 68.7082 48.9722 68.7082 47.2682C68.7082 45.5643 68.3743 43.9103 67.7154 42.3524ZM48.9389 55.5606C46.6112 53.5541 45.137 50.5834 45.137 47.2682C45.137 41.224 50.0364 36.3241 56.0811 36.3241C59.3958 36.3241 62.3664 37.7979 64.373 40.1261C66.0256 42.043 67.0247 44.5387 67.0247 47.2682C67.0247 53.3134 62.1235 58.2124 56.0811 58.2124C53.352 58.2124 50.8559 57.2132 48.9389 55.5606Z" fill="#BCBEC1"/>
<path d="M141.939 81.9128C141.459 81.9127 140.986 81.8228 140.531 81.6454C136.038 79.8912 130.986 78.9639 125.921 78.9639C124.257 78.9639 122.581 79.0635 120.938 79.2598L120.23 79.3444L120.03 78.6595C118.354 72.9079 114.603 67.997 109.469 64.8316L108.688 64.35L109.235 63.6133C110.917 61.3481 113.161 59.5474 115.726 58.406L116.261 58.168L116.67 58.5865C119.124 61.0965 122.409 62.4788 125.918 62.4787C129.429 62.4787 132.714 61.0964 135.168 58.5865L135.578 58.168L136.112 58.406C141.999 61.0257 145.802 66.8596 145.802 73.2685V78.0419C145.802 79.0958 145.388 80.079 144.636 80.8104C143.906 81.5212 142.948 81.9128 141.939 81.9128C141.939 81.9128 141.939 81.9128 141.939 81.9128Z" fill="#DDDDDD"/>
<path d="M125.919 59.0541C122.772 59.0541 119.812 57.8283 117.586 55.6026C115.36 53.3765 114.133 50.4166 114.133 47.2682C114.133 44.1201 115.359 41.1605 117.585 38.9344C119.811 36.7084 122.771 35.4824 125.919 35.4824C129.067 35.4824 132.027 36.7084 134.253 38.9344C136.479 41.1605 137.705 44.1201 137.705 47.2682C137.705 50.4166 136.479 53.3764 134.252 55.6025C132.026 57.8283 129.067 59.0541 125.919 59.0541Z" fill="url(#paint1_linear_4479_39036)"/>
<path d="M137.554 42.3524C137.023 41.0984 136.302 39.9509 135.405 38.9322C135.227 38.7293 135.041 38.5318 134.848 38.3393C133.689 37.18 132.339 36.27 130.835 35.6339C129.277 34.9746 127.623 34.6406 125.919 34.6406C124.215 34.6406 122.562 34.9746 121.004 35.6339C119.499 36.27 118.149 37.18 116.99 38.3393C115.831 39.4982 114.921 40.8486 114.285 42.3524C113.626 43.9103 113.292 45.5643 113.292 47.2682C113.292 48.9722 113.626 50.6266 114.285 52.1845C114.921 53.6883 115.832 55.0387 116.991 56.1976C117.183 56.3901 117.381 56.5757 117.584 56.7545C118.603 57.6518 119.75 58.3725 121.004 58.903C122.562 59.5619 124.216 59.8959 125.919 59.8959C127.623 59.8959 129.276 59.5619 130.834 58.903C132.338 58.267 133.689 57.357 134.847 56.1976C136.007 55.0387 136.917 53.6883 137.553 52.1845C138.213 50.6266 138.547 48.9722 138.547 47.2682C138.547 45.5643 138.213 43.9103 137.554 42.3524ZM118.776 55.5592C116.449 53.5527 114.975 50.5829 114.975 47.2682C114.975 41.224 119.875 36.3241 125.919 36.3241C129.234 36.3241 132.205 37.7979 134.211 40.1261C135.864 42.043 136.863 44.5387 136.863 47.2682C136.863 53.3134 131.962 58.2124 125.919 58.2124C123.189 58.2124 120.693 57.2127 118.776 55.5592Z" fill="#BCBEC1"/>
<path d="M112.794 96.7961C112.177 96.7961 111.567 96.6802 110.982 96.4517C104.8 94.038 97.8504 92.7622 90.8846 92.7622C83.9183 92.7622 76.9685 94.038 70.7867 96.4517C70.2014 96.6802 69.5916 96.7961 68.9745 96.7961C66.2316 96.7961 64.0001 94.5599 64.0001 91.8113V85.2828C64.0001 80.9747 65.2634 76.7971 67.6534 73.2015C69.9833 69.6961 73.2391 66.9424 77.0687 65.238L77.6035 65L78.0128 65.4186C81.4284 68.9115 85.9994 70.8351 90.8838 70.835C95.7687 70.8349 100.34 68.9113 103.756 65.4185L104.165 65L104.7 65.238C112.639 68.7713 117.768 76.6394 117.768 85.2829V91.8114C117.768 93.1686 117.235 94.4346 116.268 95.3762C115.34 96.2785 114.074 96.7961 112.794 96.7961Z" fill="url(#paint2_linear_4479_39036)"/>
<path d="M142.299 82C141.84 82 141.387 81.9125 140.951 81.7401C136.352 79.9182 131.182 78.9552 126 78.9552C120 79.5 120 79 117 72.5C116.565 72.6725 117.459 72.5 117 72.5C117 69.2482 111 66.5 108.718 64.1905C110.451 61.5447 112.873 59.4662 115.722 58.1797L116.12 58L116.424 58.3159C118.965 60.9525 122.366 62.4044 126 62.4043C129.634 62.4042 133.034 60.9523 135.575 58.3159L135.88 58L136.278 58.1797C142.184 60.8466 146 66.7855 146 73.3097V78.2375C146 79.2619 145.603 80.2175 144.884 80.9282C144.194 81.6093 143.252 82 142.299 82Z" fill="url(#paint3_linear_4479_39036)"/>
<path d="M62 78.3034C61.5523 78.3034 61.9245 79.9687 61.5 79.8034C57 79.0007 60.5528 79.3855 55.5002 79.3855C50.4473 79.3855 45.4064 80.3083 40.9225 82.0543C40.498 82.2196 40.0557 82.3034 39.6081 82.3034C37.6186 82.3034 36 80.6859 36 78.6977V73.9752C36 70.8589 36.9163 67.8369 38.6498 65.236C40.3398 62.7004 42.2222 60.2329 45 59L46.5 58.5L52 62C55.8915 62.7108 56.2647 62.7108 56.2647 62.7108C59.8079 62.7108 63.219 60.1553 66.2059 59H67L67.7353 59.6062C73.5 63.8034 72.5 63.3034 73 64.8034L66.5 69.8034C66.5 70.7852 63.7019 74.6223 63 75.3034C62.3272 75.9561 62.9283 78.3034 62 78.3034Z" fill="url(#paint4_linear_4479_39036)"/>
<path d="M114.969 72.8832C114.265 71.8149 113.473 70.8089 112.602 69.8748C112.001 69.2287 111.36 68.6171 110.686 68.0429C109.016 66.6211 107.156 65.4494 105.158 64.5599L104.543 64.2865L104.088 64.084L103.27 64.9207C101.143 67.0952 98.5467 68.6317 95.7043 69.4361C94.1941 69.8634 92.6148 70.0841 90.9996 70.0841C86.607 70.0841 82.4802 68.452 79.2938 65.4708C79.2119 65.3948 79.1305 65.3175 79.0499 65.2388C78.9421 65.1346 78.8356 65.0286 78.7305 64.9207L77.912 64.084L76.8423 64.5599C76.3368 64.7847 75.8404 65.0281 75.3531 65.2888C73.9325 66.0496 72.593 66.961 71.3559 68.0093C69.706 69.4075 68.2632 71.0282 67.068 72.8264C65.5223 75.1519 64.4303 77.7121 63.8265 80.3939C63.4607 82.0178 63.2742 83.6863 63.2742 85.3739V91.92C63.276 92.5001 63.3606 93.0657 63.5235 93.6035C63.8011 94.5198 64.3043 95.3561 65.005 96.0455C65.0132 96.0541 65.0214 96.0618 65.0296 96.07C65.2066 96.242 65.3926 96.4022 65.5878 96.5491C65.9832 96.8485 66.415 97.0951 66.8773 97.2867C67.5848 97.5802 68.3292 97.729 69.0904 97.729C69.8125 97.729 70.5255 97.5934 71.2085 97.3267C72.4165 96.8549 73.6545 96.4277 74.9163 96.0455C80.0118 94.5016 85.5 93.6949 91.0005 93.6949C96.5005 93.6949 101.989 94.5016 107.084 96.0455C108.346 96.4277 109.584 96.8549 110.792 97.3267C111.475 97.5934 112.188 97.729 112.91 97.729C113.671 97.729 114.415 97.5802 115.123 97.2871C115.813 97.001 116.435 96.5915 116.971 96.0705C116.979 96.0623 116.987 96.0541 116.996 96.0455C117.696 95.3561 118.199 94.5198 118.477 93.6035C118.639 93.0657 118.724 92.4996 118.726 91.92V85.3739C118.726 80.9267 117.427 76.6074 114.969 72.8832ZM111.404 95.7584C105.004 93.2599 98.0025 92.0114 91.0005 92.0114C83.9967 92.0114 76.9929 93.2609 70.5965 95.7584C70.0951 95.954 69.5864 96.0455 69.0904 96.0455C68.2591 96.0455 67.4634 95.7897 66.7959 95.3429C65.7057 94.6136 64.9577 93.3737 64.9577 91.9022V85.3739C64.9577 76.8103 70.1347 69.3879 77.5266 66.0978C81.223 69.878 86.1111 71.7676 90.9996 71.7676C95.8881 71.7676 100.777 69.8775 104.474 66.0978C107.128 67.279 109.48 68.9825 111.411 71.0669C114.925 74.8584 117.042 79.9107 117.042 85.3739V91.9022C117.042 94.2755 115.098 96.0455 112.91 96.0455C112.414 96.0455 111.905 95.954 111.404 95.7584Z" fill="#BCBEC1"/>
<path d="M90.9999 67.8232C88.8664 67.8231 86.7962 67.4051 84.8467 66.5806C82.964 65.7843 81.2733 64.6446 79.8216 63.193C78.3696 61.7414 77.2296 60.0507 76.4332 58.168C75.6083 56.2182 75.1901 54.1474 75.1901 52.0131C75.1901 49.8792 75.6082 47.8086 76.4328 45.8589C77.2292 43.9762 78.369 42.2854 79.8207 40.8338C81.2724 39.3821 82.9631 38.2422 84.8458 37.4459C86.7955 36.6212 88.8661 36.2031 91.0001 36.2031C93.1341 36.2031 95.2046 36.6212 97.1543 37.4459C99.0371 38.2422 100.728 39.3821 102.179 40.8338C103.631 42.2854 104.771 43.9761 105.567 45.8589C106.392 47.8086 106.81 49.8792 106.81 52.0131C106.81 56.2409 105.163 60.2137 102.172 63.1997C100.719 64.6495 99.0284 65.7878 97.1457 66.5831C95.1976 67.4059 93.1299 67.8232 90.9999 67.8232Z" fill="url(#paint5_linear_4479_39036)"/>
<path d="M106.343 45.531C105.609 43.7975 104.6 42.2182 103.336 40.8272C103.154 40.627 102.967 40.4309 102.775 40.2389C101.246 38.7101 99.4653 37.5094 97.482 36.6708C95.4281 35.8022 93.2473 35.3613 91 35.3613C88.7528 35.3613 86.572 35.8022 84.5181 36.6708C82.5347 37.5094 80.7543 38.7101 79.2255 40.2389C77.6967 41.7673 76.4964 43.5481 75.6574 45.531C74.7888 47.5854 74.3484 49.7662 74.3484 52.0134C74.3484 54.2607 74.7888 56.4419 75.6579 58.4963C76.4969 60.4791 77.6972 62.26 79.2264 63.7884C79.4175 63.9795 79.6127 64.1656 79.8116 64.3462C79.812 64.3466 79.8125 64.3471 79.8129 64.3476C81.2043 65.6125 82.7841 66.6226 84.5185 67.356C86.5724 68.2246 88.7532 68.6651 91 68.6651C93.2427 68.6651 95.4208 68.2255 97.4733 67.3587C99.4562 66.5211 101.237 65.3222 102.766 63.7956C104.297 62.2673 105.5 60.4869 106.339 58.504C107.21 56.4483 107.652 54.2643 107.652 52.0134C107.652 49.7662 107.211 47.5854 106.343 45.531ZM81.0064 63.1564C77.9529 60.4164 76.0319 56.4397 76.0319 52.0134C76.0319 43.7465 82.7331 37.0448 91 37.0448C95.4254 37.0448 99.402 38.9654 102.143 42.0184C104.521 44.6684 105.968 48.1719 105.968 52.0134C105.968 60.2981 99.2474 66.9816 91 66.9816C87.1598 66.9816 83.6563 65.5351 81.0064 63.1564Z" fill="#BCBEC1"/>
<path d="M73.4407 63.1116C73.0977 62.6493 72.7323 62.2057 72.3455 61.7817C70.7439 60.0217 68.7897 58.6044 66.6166 57.6371L66.0993 57.4068L65.5469 57.1611L64.7284 57.9979C63.8803 58.8651 62.9261 59.589 61.8942 60.1559C60.1343 61.1233 58.1491 61.637 56.0798 61.637C53.0235 61.637 50.1497 60.5158 47.9157 58.4652C47.862 58.4156 47.8083 58.366 47.7551 58.3155C47.6463 58.2117 47.5389 58.1057 47.4334 57.9979L46.6148 57.1611L45.5456 57.6371C42.5612 58.9652 40.0237 61.1105 38.2078 63.841C36.3423 66.6461 35.3563 69.9061 35.3563 73.2686V78.042C35.3563 79.3251 35.8609 80.5227 36.7768 81.4135C36.9579 81.5901 37.1518 81.7502 37.356 81.894C37.64 82.0947 37.9457 82.263 38.2701 82.3972C38.8425 82.6343 39.4454 82.7544 40.0615 82.7544C40.6462 82.7544 41.2226 82.6452 41.775 82.4296C46.1712 80.7133 51.118 79.8056 56.0798 79.8056C57.71 79.8056 59.3526 79.9034 60.9619 80.0954L62.3788 80.2651L62.7783 78.8951C64.3962 73.3441 68.0167 68.6039 72.9725 65.5481L74.5346 64.5849L73.4407 63.1116ZM38.5759 80.6764C37.6759 80.1655 37.0398 79.2022 37.0398 78.042V73.2686C37.0398 67.0023 40.8295 61.5787 46.2299 59.175C48.9335 61.94 52.5071 63.3205 56.0798 63.3205C59.6556 63.3205 63.2305 61.9377 65.9319 59.175C67.9298 60.0645 69.7075 61.3672 71.1535 62.9728C71.4829 63.3382 71.795 63.7195 72.0889 64.1154C66.8946 67.3181 62.9202 72.3918 61.1616 78.4242C59.4781 78.2226 57.7792 78.1221 56.0798 78.1221C50.9592 78.1221 45.8386 79.0357 41.1626 80.8616C40.7963 81.0045 40.4241 81.0709 40.0615 81.0709C39.5319 81.0709 39.0218 80.929 38.5759 80.6764Z" fill="#BCBEC1"/>
<g clip-path="url(#clip1_4479_39036)">
<path d="M143.792 63.841C143.306 63.1093 142.768 62.4205 142.183 61.7776C140.585 60.0199 138.639 58.6094 136.455 57.6371L135.938 57.4068L135.385 57.1611L134.567 57.9979C133.718 58.866 132.763 59.5895 131.73 60.1569C129.971 61.1237 127.987 61.637 125.918 61.637C122.862 61.637 119.988 60.5158 117.754 58.4652C117.7 58.4156 117.647 58.366 117.593 58.3155C117.485 58.2117 117.377 58.1057 117.272 57.9979L116.453 57.1611L115.383 57.6371C112.687 58.8374 110.327 60.7302 108.559 63.1116L107.466 64.5849L108.84 65.4326L109.028 65.5481C110.839 66.6652 112.472 68.007 113.894 69.5317C116.363 72.1775 118.195 75.3734 119.222 78.8951L119.621 80.2651L120.409 80.1709L121.038 80.0959C122.648 79.9034 124.291 79.8056 125.921 79.8056C130.883 79.8056 135.829 80.7133 140.225 82.4296C140.778 82.6452 141.354 82.7544 141.939 82.7544C142.555 82.7544 143.158 82.6343 143.73 82.3972C144.288 82.1661 144.79 81.8353 145.223 81.4135C146.139 80.5227 146.644 79.3251 146.644 78.042V73.2686C146.644 69.9061 145.658 66.6461 143.792 63.841ZM121.593 78.3414C121.341 78.3664 121.09 78.3942 120.838 78.4242C119.724 74.6022 117.718 71.1565 115.065 68.3282C113.911 67.0974 112.635 65.9836 111.258 65.0072C110.819 64.6955 110.37 64.3984 109.911 64.1154C111.495 61.9814 113.615 60.267 116.068 59.175C118.772 61.94 122.345 63.3205 125.918 63.3205C129.494 63.3205 133.069 61.9377 135.77 59.175C137.768 60.0645 139.545 61.3667 140.992 62.9724C143.456 65.7069 144.96 69.3206 144.96 73.2686V78.042C144.96 79.7769 143.538 81.0709 141.939 81.0709C141.576 81.0709 141.204 81.0045 140.838 80.8616C136.158 79.0343 131.04 78.1221 125.921 78.1221C124.476 78.1221 123.029 78.1953 121.593 78.3414Z" fill="#BCBEC1"/>
</g>
</g>
<defs>
<linearGradient id="paint0_linear_4479_39036" x1="44.2949" y1="47.2288" x2="63.1534" y2="37.8011" gradientUnits="userSpaceOnUse">
<stop stop-color="#03688C"/>
<stop offset="1" stop-color="#08BED0"/>
</linearGradient>
<linearGradient id="paint1_linear_4479_39036" x1="114.133" y1="59.0539" x2="137.705" y2="35.4822" gradientUnits="userSpaceOnUse">
<stop stop-color="#024C74"/>
<stop offset="1" stop-color="#08BED0"/>
</linearGradient>
<linearGradient id="paint2_linear_4479_39036" x1="63.9993" y1="96.7959" x2="91.8615" y2="49.6799" gradientUnits="userSpaceOnUse">
<stop stop-color="#03688C"/>
<stop offset="1" stop-color="#08BED0"/>
</linearGradient>
<linearGradient id="paint3_linear_4479_39036" x1="108.717" y1="81.9999" x2="130.564" y2="48.063" gradientUnits="userSpaceOnUse">
<stop stop-color="#024C74"/>
<stop offset="1" stop-color="#08BED0"/>
</linearGradient>
<linearGradient id="paint4_linear_4479_39036" x1="35.9998" y1="70.3619" x2="59.0694" y2="52.4351" gradientUnits="userSpaceOnUse">
<stop stop-color="#03688C"/>
<stop offset="1" stop-color="#08BED0"/>
</linearGradient>
<linearGradient id="paint5_linear_4479_39036" x1="75.1896" y1="67.823" x2="106.81" y2="36.2027" gradientUnits="userSpaceOnUse">
<stop stop-color="#03688C"/>
<stop offset="1" stop-color="#08BED0"/>
</linearGradient>
<clipPath id="clip0_4479_39036">
<rect width="182" height="134" fill="white"/>
</clipPath>
<clipPath id="clip1_4479_39036">
<rect width="39.1782" height="25.5933" fill="white" transform="translate(107.466 57.1611)"/>
</clipPath>
</defs>
</svg>
