<svg width="726" height="484" viewBox="0 0 726 484" fill="none" xmlns="http://www.w3.org/2000/svg">
<g clip-path="url(#clip0_694_62409)">
<path d="M596.342 112.057H167.005C154.53 112.057 144.418 122.169 144.418 134.643V387.684C144.418 400.158 154.53 410.271 167.005 410.271H596.342C608.817 410.271 618.929 400.158 618.929 387.684V134.643C618.929 122.169 608.817 112.057 596.342 112.057Z" fill="#16181F" stroke="#282C38" stroke-width="3.22667"/>
<path d="M551.119 133.98H518.235C513.072 133.98 508.887 138.165 508.887 143.328C508.887 148.491 513.072 152.676 518.235 152.676H551.119C556.282 152.676 560.467 148.491 560.467 143.328C560.467 138.165 556.282 133.98 551.119 133.98Z" fill="#16181F" stroke="#282C38" stroke-width="3.22667"/>
<path d="M481.697 133.98H448.813C443.65 133.98 439.465 138.165 439.465 143.328C439.465 148.491 443.65 152.676 448.813 152.676H481.697C486.86 152.676 491.046 148.491 491.046 143.328C491.046 138.165 486.86 133.98 481.697 133.98Z" fill="#16181F" stroke="#282C38" stroke-width="3.22667"/>
<path d="M421.622 143.328C421.622 138.165 417.437 133.98 412.274 133.98C407.111 133.98 402.926 138.165 402.926 143.328C402.926 148.491 407.111 152.676 412.274 152.676C417.437 152.676 421.622 148.491 421.622 143.328Z" fill="#16181F" stroke="#282C38" stroke-width="3.22667"/>
<path d="M203.727 307.594H267.5V330.95H294.359V307.594H310.837V285.082H294.359V198.083H259.195L203.727 285.471V307.594ZM268.019 285.082H232.012V284.044L266.981 228.705H268.019V285.082ZM381.649 333.869C415.06 333.869 435.237 308.437 435.302 264.646C435.367 221.179 414.93 196.266 381.649 196.266C348.303 196.266 328.061 221.114 327.997 264.646C327.867 308.307 348.173 333.804 381.649 333.869ZM381.649 310.578C366.404 310.578 356.542 295.268 356.607 264.646C356.672 234.479 366.468 219.297 381.649 219.297C396.765 219.297 406.627 234.479 406.627 264.646C406.691 295.268 396.83 310.578 381.649 310.578ZM453.321 307.594H517.095V330.95H543.954V307.594H560.432V285.082H543.954V198.083H508.79L453.321 285.471V307.594ZM517.613 285.082H481.607V284.044L516.575 228.705H517.613V285.082Z" fill="#282C38"/>
<path d="M189.605 141.501C189.605 137.347 186.238 133.98 182.084 133.98C177.93 133.98 174.562 137.347 174.562 141.501C174.562 145.655 177.93 149.023 182.084 149.023C186.238 149.023 189.605 145.655 189.605 141.501Z" fill="#16181F" stroke="#282C38" stroke-width="3.22667"/>
<path d="M150.604 312.754C155.876 312.754 160.149 317.028 160.149 322.299C160.149 327.571 155.876 331.845 150.604 331.845C145.332 331.845 141.059 327.571 141.059 322.299C141.059 317.028 145.332 312.754 150.604 312.754Z" fill="#00CCCC"/>
<path d="M626.298 209.699C619.906 213.39 611.731 211.2 608.041 204.807C604.35 198.414 606.54 190.24 612.933 186.549C619.326 182.858 627.5 185.049 631.191 191.441C634.881 197.834 632.691 206.008 626.298 209.699Z" fill="#00CCCC"/>
<path d="M376.562 153.203C371.06 153.203 366.6 148.743 366.6 143.242C366.6 137.74 371.06 133.28 376.562 133.28C382.064 133.28 386.523 137.74 386.523 143.242C386.523 148.743 382.064 153.203 376.562 153.203Z" fill="#282C38"/>
<path d="M257.457 119.603C264.779 119.603 270.714 113.667 270.714 106.345C270.714 99.023 264.779 93.0874 257.457 93.0874C250.135 93.0874 244.199 99.023 244.199 106.345C244.199 113.667 250.135 119.603 257.457 119.603Z" fill="#00CCCC"/>
<path d="M446.984 347.028C440.929 347.028 436.022 351.936 436.022 357.99C436.022 364.044 440.929 368.952 446.984 368.952C453.038 368.952 457.945 364.044 457.945 357.99C457.945 351.936 453.038 347.028 446.984 347.028Z" fill="#00CCCC"/>
<path d="M244.226 389.102C238.661 389.102 234.15 384.591 234.15 379.027C234.15 373.463 238.661 368.952 244.226 368.952C249.79 368.952 254.301 373.463 254.301 379.027C254.301 384.591 249.79 389.102 244.226 389.102Z" fill="#282C38"/>
<path d="M345.066 341.669C348.677 343.754 349.914 348.372 347.829 351.983C345.744 355.595 341.127 356.832 337.515 354.747C333.904 352.662 332.667 348.044 334.752 344.433C336.837 340.822 341.454 339.584 345.066 341.669Z" fill="#282C38"/>
<path d="M594.076 131.872L580.343 145.605C579.843 146.105 579.843 146.916 580.343 147.416C580.843 147.916 581.654 147.916 582.154 147.416L595.887 133.683C596.388 133.183 596.388 132.372 595.888 131.872C595.387 131.372 594.576 131.372 594.076 131.872Z" fill="#282C38"/>
<path d="M592.731 141.706L588.771 145.666C588.271 146.166 588.271 146.977 588.771 147.477C589.271 147.977 590.082 147.977 590.582 147.477L594.542 143.517C595.043 143.016 595.043 142.206 594.543 141.705C594.043 141.205 593.232 141.205 592.731 141.706Z" fill="#282C38"/>
<path d="M170.517 374.329L158.228 386.618C157.781 387.065 157.781 387.79 158.228 388.238L158.229 388.238C158.676 388.686 159.401 388.686 159.848 388.238L172.137 375.95C172.584 375.502 172.584 374.777 172.137 374.33L172.137 374.329C171.689 373.882 170.964 373.882 170.517 374.329Z" fill="#282C38"/>
<path d="M169.315 383.126L165.771 386.67C165.324 387.118 165.324 387.843 165.771 388.29L165.771 388.291C166.219 388.738 166.944 388.738 167.391 388.291L170.936 384.747C171.383 384.299 171.383 383.574 170.936 383.127L170.935 383.126C170.488 382.679 169.763 382.679 169.315 383.126Z" fill="#282C38"/>
<path d="M110.963 135.348L134.719 111.592C135.584 110.727 135.584 109.325 134.719 108.46C133.854 107.595 132.451 107.595 131.586 108.46L107.831 132.215C106.966 133.08 106.966 134.483 107.831 135.348C108.696 136.213 110.098 136.213 110.963 135.348Z" fill="#282C38"/>
<path d="M113.29 118.34L120.141 111.489C121.006 110.624 121.006 109.221 120.141 108.356C119.276 107.491 117.873 107.491 117.008 108.356L110.157 115.207C109.292 116.072 109.292 117.475 110.157 118.34C111.022 119.205 112.425 119.205 113.29 118.34Z" fill="#282C38"/>
<path d="M582.744 390.883L599.468 374.159C600.077 373.55 600.077 372.563 599.468 371.954C598.859 371.345 597.871 371.345 597.263 371.954L580.539 388.678C579.93 389.287 579.93 390.274 580.539 390.883C581.148 391.492 582.135 391.492 582.744 390.883Z" fill="#282C38"/>
<path d="M584.381 378.91L589.204 374.086C589.813 373.478 589.813 372.49 589.204 371.881C588.595 371.272 587.608 371.272 586.999 371.881L582.176 376.705C581.567 377.314 581.567 378.301 582.176 378.91C582.785 379.519 583.772 379.519 584.381 378.91Z" fill="#282C38"/>
<path fill-rule="evenodd" clip-rule="evenodd" d="M571.465 82.9036H574.13C574.774 82.9036 575.293 83.4279 575.293 84.0668V86.732C575.293 87.3766 574.769 87.8952 574.13 87.8952H571.465C570.826 87.8952 570.301 87.3709 570.301 86.732V84.0668C570.301 83.914 570.331 83.7626 570.389 83.6213C570.448 83.48 570.533 83.3517 570.641 83.2436C570.749 83.1355 570.878 83.0498 571.019 82.9915C571.16 82.9331 571.312 82.9033 571.465 82.9036ZM580.705 82.9036H583.37C584.009 82.9036 584.533 83.4279 584.533 84.0668V86.732C584.533 87.3766 584.009 87.8952 583.37 87.8952H580.705C580.066 87.8952 579.542 87.3709 579.542 86.732V84.0668C579.542 83.4279 580.066 82.9036 580.705 82.9036ZM589.952 82.9036H592.617C593.257 82.9036 593.781 83.4279 593.781 84.0668V86.732C593.781 87.3766 593.257 87.8952 592.617 87.8952H589.952C589.313 87.8952 588.789 87.3709 588.789 86.732V84.0668C588.788 83.914 588.818 83.7626 588.876 83.6213C588.935 83.48 589.021 83.3517 589.129 83.2436C589.237 83.1355 589.365 83.0498 589.506 82.9915C589.648 82.9331 589.799 82.9033 589.952 82.9036ZM599.193 82.9036H601.858C602.497 82.9036 603.021 83.4279 603.021 84.0668V86.732C603.021 87.3766 602.497 87.8952 601.858 87.8952H599.193C598.884 87.895 598.588 87.7726 598.369 87.5547C598.15 87.3367 598.026 87.041 598.024 86.732V84.0668C598.027 83.7584 598.152 83.4636 598.371 83.246C598.589 83.0285 598.884 82.9055 599.193 82.9036ZM608.434 82.9036H611.099C611.744 82.9036 612.268 83.4279 612.268 84.0668V86.732C612.268 87.3766 611.744 87.8952 611.099 87.8952H608.434C607.795 87.8952 607.271 87.3709 607.271 86.732V84.0668C607.271 83.4279 607.795 82.9036 608.434 82.9036ZM581.044 92.9805H583.709C584.349 92.9805 584.873 93.5048 584.873 94.1437V96.8146C584.873 97.4534 584.349 97.9778 583.709 97.9778H581.044C580.399 97.9778 579.881 97.4534 579.881 96.8146V94.1493C579.88 93.996 579.909 93.8441 579.967 93.7022C580.025 93.5603 580.111 93.4313 580.219 93.3227C580.327 93.214 580.455 93.1279 580.597 93.0691C580.739 93.0104 580.891 92.9803 581.044 92.9805ZM590.285 92.9805H592.95C593.589 92.9805 594.113 93.5048 594.113 94.1437V96.8146C594.113 97.4534 593.589 97.9778 592.95 97.9778H590.285C589.646 97.9778 589.122 97.4534 589.122 96.8146V94.1493C589.121 93.996 589.15 93.8441 589.208 93.7022C589.266 93.5603 589.352 93.4313 589.46 93.3227C589.568 93.214 589.697 93.1279 589.838 93.0691C589.98 93.0104 590.132 92.9803 590.285 92.9805ZM599.526 92.9805H602.191C602.836 92.9805 603.36 93.5048 603.36 94.1437V96.8146C603.359 97.1235 603.235 97.4193 603.016 97.6372C602.797 97.8551 602.5 97.9776 602.191 97.9778H599.526C598.887 97.9778 598.363 97.4534 598.363 96.8146V94.1493C598.363 93.5048 598.887 92.9805 599.526 92.9805ZM589.952 72.0781H592.617C593.257 72.0781 593.781 72.6025 593.781 73.2413V75.9074C593.781 76.5511 593.257 77.0706 592.617 77.0706H589.952C589.313 77.0706 588.789 76.5463 588.789 75.9074V73.2413C588.788 73.0885 588.818 72.9371 588.876 72.7958C588.935 72.6546 589.021 72.5262 589.129 72.4181C589.237 72.31 589.365 72.2244 589.506 72.166C589.648 72.1077 589.799 72.0778 589.952 72.0781ZM599.193 72.0781H601.858C602.497 72.0781 603.021 72.6025 603.021 73.2413V75.9074C603.021 76.5511 602.497 77.0706 601.858 77.0706H599.193C598.884 77.0704 598.588 76.9479 598.369 76.73C598.15 76.5121 598.026 76.2163 598.024 75.9074V73.2413C598.027 72.9329 598.152 72.6382 598.371 72.4206C598.589 72.203 598.884 72.08 599.193 72.0781ZM90.0734 397.133H92.7386C93.3831 397.133 93.9018 397.657 93.9018 398.296V400.961C93.9018 401.605 93.3775 402.124 92.7386 402.124H90.0734C89.4345 402.124 88.9102 401.6 88.9102 400.961V398.296C88.9098 398.143 88.9397 397.991 88.9981 397.85C89.0564 397.709 89.1421 397.581 89.2501 397.473C89.3582 397.364 89.4866 397.279 89.6279 397.22C89.7691 397.162 89.9205 397.132 90.0734 397.133ZM99.3137 397.133H101.979C102.619 397.133 103.143 397.657 103.143 398.296V400.961C103.143 401.605 102.619 402.124 101.979 402.124H99.3137C98.6749 402.124 98.1505 401.6 98.1505 400.961V398.296C98.1505 397.657 98.6749 397.133 99.3137 397.133ZM108.561 397.133H111.227C111.865 397.133 112.39 397.657 112.39 398.296V400.961C112.39 401.605 111.865 402.124 111.227 402.124H108.561C107.922 402.124 107.397 401.6 107.397 400.961V398.296C107.397 398.143 107.427 397.992 107.485 397.85C107.544 397.709 107.63 397.581 107.738 397.473C107.846 397.365 107.974 397.279 108.115 397.221C108.256 397.162 108.408 397.132 108.561 397.133ZM117.802 397.133H120.467C121.106 397.133 121.63 397.657 121.63 398.296V400.961C121.63 401.605 121.106 402.124 120.467 402.124H117.802C117.493 402.124 117.196 402.002 116.977 401.784C116.758 401.566 116.635 401.27 116.633 400.961V398.296C116.636 397.987 116.761 397.693 116.979 397.475C117.198 397.257 117.493 397.134 117.802 397.133ZM127.043 397.133H129.708C130.353 397.133 130.877 397.657 130.877 398.296V400.961C130.877 401.605 130.353 402.124 129.708 402.124H127.043C126.404 402.124 125.88 401.6 125.88 400.961V398.296C125.88 397.657 126.404 397.133 127.043 397.133ZM99.6533 407.209H102.319C102.957 407.209 103.482 407.734 103.482 408.373V411.043C103.482 411.682 102.957 412.207 102.319 412.207H99.6533C99.0088 412.207 98.4893 411.682 98.4893 411.043V408.378C98.4886 408.225 98.5181 408.073 98.5763 407.931C98.6345 407.789 98.7201 407.66 98.8283 407.552C98.9365 407.443 99.0651 407.357 99.2066 407.298C99.3482 407.239 99.5 407.209 99.6533 407.209ZM108.894 407.209H111.559C112.198 407.209 112.722 407.734 112.722 408.373V411.043C112.722 411.682 112.198 412.207 111.559 412.207H108.894C108.255 412.207 107.731 411.682 107.731 411.043V408.378C107.73 408.225 107.759 408.073 107.817 407.931C107.875 407.789 107.961 407.66 108.069 407.552C108.177 407.443 108.305 407.357 108.447 407.298C108.589 407.239 108.74 407.209 108.894 407.209ZM118.135 407.209H120.8C121.445 407.209 121.969 407.734 121.969 408.373V411.043C121.967 411.352 121.843 411.648 121.624 411.866C121.405 412.084 121.109 412.206 120.8 412.207H118.135C117.496 412.207 116.972 411.682 116.972 411.043V408.378C116.972 407.734 117.496 407.209 118.135 407.209ZM108.561 386.307H111.227C111.865 386.307 112.39 386.831 112.39 387.471V390.136C112.39 390.781 111.865 391.299 111.227 391.299H108.561C107.922 391.299 107.397 390.775 107.397 390.136V387.471C107.397 387.318 107.427 387.167 107.485 387.025C107.544 386.884 107.629 386.755 107.738 386.647C107.846 386.539 107.974 386.453 108.116 386.395C108.257 386.337 108.408 386.307 108.561 386.307ZM117.802 386.307H120.467C121.106 386.307 121.63 386.831 121.63 387.471V390.136C121.63 390.781 121.106 391.299 120.467 391.299H117.802C117.493 391.299 117.196 391.177 116.977 390.959C116.758 390.741 116.635 390.445 116.633 390.136V387.471C116.636 387.162 116.76 386.868 116.979 386.65C117.198 386.432 117.493 386.309 117.802 386.307Z" fill="#282C38"/>
<path fill-rule="evenodd" clip-rule="evenodd" d="M145.913 262.911C126.037 262.911 109.922 246.568 109.922 226.412C109.922 206.256 126.037 189.915 145.913 189.915C165.789 189.915 181.904 206.256 181.904 226.412C181.904 246.568 165.789 262.911 145.913 262.911Z" fill="#00CCCC"/>
<path d="M160.41 210.924L145.206 227.146L136.078 217.414" stroke="#16181F" stroke-width="5.97337" stroke-linecap="round" stroke-linejoin="round"/>
<path d="M130.016 242.674L145.22 226.453L154.348 236.184" stroke="#16181F" stroke-width="5.97337" stroke-linecap="round" stroke-linejoin="round"/>
</g>
<defs>
<clipPath id="clip0_694_62409">
<rect width="726" height="484" fill="white"/>
</clipPath>
</defs>
</svg>
