<svg width="577" height="384" viewBox="0 0 577 384" fill="none" xmlns="http://www.w3.org/2000/svg">
<g clip-path="url(#clip0_694_62445)">
<path fill-rule="evenodd" clip-rule="evenodd" d="M190.867 175.731C201.326 175.731 196.432 159.129 183.181 163.094C182.448 140.041 144.911 123.174 129.389 154.267C125.001 150.791 115.147 157.357 117.329 163.094C112.454 163.51 108.619 164.075 105.635 164.822C98.7459 166.549 100.11 175.653 107.211 175.59L190.867 175.731Z" fill="#16181F" stroke="#282C38" stroke-width="7.04"/>
<path fill-rule="evenodd" clip-rule="evenodd" d="M191.154 117.453H233.111C236.862 117.453 238.479 112.556 235.409 110.385C235.366 110.353 235.323 110.323 235.279 110.293C230.909 107.264 225.172 107.539 225.172 107.539C225.172 107.539 224.354 91.1533 208.921 91.1533C194.967 91.1533 189.403 104.959 187.396 112.566C186.744 115.037 188.618 117.453 191.154 117.453Z" fill="#16181F" stroke="#282C38" stroke-width="2.56"/>
<path fill-rule="evenodd" clip-rule="evenodd" d="M128.439 115.254H156.61C159.129 115.254 160.214 111.945 158.153 110.479C158.124 110.457 158.095 110.436 158.066 110.416C155.131 108.37 151.28 108.555 151.28 108.555C151.28 108.555 150.73 97.484 140.368 97.484C131 97.484 127.263 106.813 125.916 111.952C125.478 113.622 126.736 115.254 128.439 115.254ZM95.5064 80.2488H66.7359C64.1631 80.2488 63.0552 76.9407 65.1602 75.4732C65.1896 75.452 65.219 75.4309 65.2491 75.4111C68.2462 73.3644 72.1797 73.5506 72.1797 73.5506C72.1797 73.5506 72.741 62.4786 83.324 62.4786C92.8914 62.4786 96.7071 71.8072 98.083 76.9471C98.5304 78.6168 97.2453 80.2488 95.5064 80.2488ZM65.3483 126.552H94.1189C96.691 126.552 97.7995 123.111 95.6946 121.585C95.665 121.563 95.6351 121.541 95.605 121.52C92.6079 119.392 88.6751 119.585 88.6751 119.585C88.6751 119.585 88.1131 108.07 77.5307 108.07C67.9627 108.07 64.1471 117.772 62.7711 123.117C62.3243 124.854 63.6088 126.552 65.3483 126.552ZM194.829 71.0796H139.428C134.943 71.0796 133.008 65.3887 136.68 62.8639L136.835 62.7576C142.062 59.2376 148.922 59.5576 148.922 59.5576C148.922 59.5576 149.902 40.5151 168.358 40.5151C177.483 40.5151 184.857 55.797 184.857 55.797C184.857 55.797 197.27 55.797 199.325 65.3989C199.945 68.3077 197.864 71.0796 194.829 71.0796ZM366.337 120.296C374.052 120.296 370.442 108.015 360.669 110.948C360.127 93.8956 332.441 81.4188 320.992 104.418C317.756 101.847 310.488 106.704 312.097 110.948C308.502 111.256 305.673 111.673 303.472 112.226C298.391 113.503 299.397 120.238 304.634 120.191L366.337 120.296ZM461.237 117.606H503.194C506.946 117.606 508.562 112.71 505.492 110.538C505.449 110.507 505.406 110.476 505.362 110.446C500.991 107.417 495.256 107.693 495.256 107.693C495.256 107.693 494.436 91.3068 479.003 91.3068C465.05 91.3068 459.486 105.113 457.479 112.719C456.827 115.19 458.701 117.606 461.237 117.606ZM339.003 69.829H367.174C369.693 69.829 370.778 66.5202 368.717 65.0527L368.63 64.9906C365.695 62.9445 361.844 63.1301 361.844 63.1301C361.844 63.1301 361.294 52.0588 350.932 52.0588C341.563 52.0588 337.828 61.3874 336.48 66.5266C336.042 68.1964 337.3 69.829 339.003 69.829ZM414.047 97.55H385.276C382.704 97.55 381.595 94.2418 383.7 92.7743C383.73 92.7532 383.759 92.732 383.789 92.7122C386.786 90.6655 390.72 90.8517 390.72 90.8517C390.72 90.8517 391.281 79.7797 401.864 79.7797C411.432 79.7797 415.247 89.1084 416.624 94.2482C417.071 95.918 415.786 97.55 414.047 97.55ZM254.102 58.9957H282.872C285.445 58.9957 286.553 55.5551 284.448 54.0293C284.419 54.0071 284.389 53.9853 284.359 53.964C281.362 51.836 277.428 52.0293 277.428 52.0293C277.428 52.0293 276.867 40.5151 266.285 40.5151C256.717 40.5151 252.901 50.2168 251.525 55.5615C251.078 57.2978 252.363 58.9957 254.102 58.9957ZM476.244 66.2744H420.842C416.357 66.2744 414.422 60.5842 418.094 58.0594C418.145 58.0242 418.198 57.9877 418.249 57.9532C423.476 54.4332 430.336 54.7525 430.336 54.7525C430.336 54.7525 431.316 35.71 449.773 35.71C458.897 35.71 466.272 50.9925 466.272 50.9925C466.272 50.9925 478.685 50.9925 480.739 60.5944C481.36 63.5032 479.278 66.2744 476.244 66.2744Z" fill="#16181F" stroke="#282C38" stroke-width="7.04"/>
<path d="M114.693 265.753L58.1582 353.414H174.279L117.744 265.753C117.503 265.38 116.978 265.048 116.218 265.048C115.457 265.048 114.933 265.38 114.692 265.753H114.693ZM384.247 250.38L316.314 353.414H456.988L389.056 250.38C388.638 249.747 387.779 249.261 386.652 249.261C385.524 249.261 384.664 249.747 384.247 250.38Z" fill="#16181F" stroke="#282C38" stroke-width="7.04"/>
<path d="M197.783 226.939L114.516 353.414H288.146L204.879 226.939C204.206 225.917 202.902 225.238 201.331 225.238C199.76 225.238 198.456 225.917 197.783 226.939ZM446.023 254.239L378.089 357.273H518.764L450.831 254.239C450.413 253.606 449.554 253.12 448.427 253.12C447.299 253.12 446.44 253.606 446.023 254.239Z" fill="#16181F" stroke="#282C38" stroke-width="7.04"/>
<path d="M201.33 337.694L219.212 349.239L236.868 337.694L219.212 293.102L201.33 337.694Z" fill="#16181F" stroke="#282C38" stroke-width="7.04"/>
<path d="M221.602 326.15V356.935M209.715 330.982L220.809 338.907" stroke="#282C38" stroke-width="7.04"/>
<path d="M249.377 337.694L267.259 349.239L284.915 337.694L267.259 293.102L249.377 337.694Z" fill="#16181F" stroke="#282C38" stroke-width="7.04"/>
<path d="M269.646 326.15V356.935M257.76 330.982L268.854 338.907" stroke="#282C38" stroke-width="7.04"/>
<path d="M297.422 333.152L319.526 347.422L341.35 333.152L319.526 278.032L297.422 333.152Z" fill="#16181F" stroke="#282C38" stroke-width="7.04"/>
<path d="M321.647 318.882V356.935M307.303 325.531L321.016 335.327" stroke="#282C38" stroke-width="7.04"/>
<path d="M419.517 102.53C413.259 129.825 383.654 146.893 352.851 139.832C322.046 132.771 302.831 104.512 309.088 77.2166C315.345 49.9206 344.95 32.8531 375.754 39.9142C406.559 46.9753 425.773 75.2339 419.517 102.53Z" fill="#16181F" stroke="#282C38" stroke-width="7.04"/>
<path d="M489.572 169.961C487.964 176.975 482.726 183.195 473.823 188.301C464.915 193.41 452.652 197.205 437.764 199.414C408.009 203.83 368.521 201.806 326.422 192.156C284.322 182.505 247.894 167.127 223.035 150.192C210.595 141.719 201.209 132.962 195.416 124.483C189.626 116.009 187.62 108.128 189.228 101.115C190.836 94.1009 196.074 87.8807 204.976 82.7748C213.884 77.6663 226.147 73.8711 241.036 71.6619C270.79 67.2459 310.278 69.2702 352.378 78.9201C394.478 88.5707 430.905 103.949 455.765 120.884C468.205 129.358 477.59 138.115 483.383 146.593C489.173 155.067 491.179 162.948 489.572 169.961Z" fill="#16181F" stroke="#282C38" stroke-width="7.04"/>
<path d="M261.686 103.716C273.253 104.402 282.867 100.968 283.16 96.046C283.452 91.1235 274.311 86.5764 262.744 85.8897C251.176 85.2031 241.562 88.637 241.27 93.5594C240.978 98.4819 250.118 103.029 261.686 103.716Z" fill="#282C38"/>
<path d="M319.236 110.754C330.668 112.648 340.589 110.239 341.395 105.374C342.201 100.51 333.587 95.0304 322.155 93.1364C310.723 91.2424 300.802 93.6508 299.996 98.5156C299.19 103.38 307.804 108.86 319.236 110.754Z" fill="#282C38"/>
<path d="M377.451 128.058C388.167 132.469 398.375 132.348 400.252 127.788C402.129 123.228 394.964 115.956 384.248 111.545C373.532 107.134 363.324 107.255 361.447 111.815C359.57 116.375 366.735 123.647 377.451 128.058Z" fill="#282C38"/>
<path d="M328.062 173.145C357.555 180.511 384.004 176.309 387.138 163.76C390.273 151.21 368.906 135.065 339.414 127.698C309.922 120.332 283.473 124.534 280.338 137.084C277.203 149.633 298.57 165.779 328.062 173.145Z" fill="#282C38"/>
<path d="M436.04 157.634C445.742 163.97 455.793 165.76 458.489 161.632C461.186 157.503 455.507 149.02 445.805 142.683C436.103 136.346 426.052 134.556 423.356 138.685C420.659 142.813 426.338 151.297 436.04 157.634Z" fill="#282C38"/>
<path d="M151.758 357.393L281.293 134.722C349.543 127.582 379.709 152.869 386.26 166.404L359.906 357.393H151.758Z" fill="#00CCCC"/>
<path d="M255.328 302.359C252.218 302.359 249.796 301.477 248.061 299.712C246.327 297.948 245.459 295.495 245.459 292.355H251.56C251.56 293.761 251.889 294.867 252.547 295.675C253.205 296.482 254.132 296.886 255.328 296.886H259.635C260.95 296.886 261.997 296.527 262.775 295.81C263.582 295.092 263.986 294.135 263.986 292.939V290.516C263.986 289.469 263.567 288.617 262.73 287.959C261.922 287.301 260.846 286.972 259.5 286.972H246.536V270.599H269.01V276.072H252.726V281.5H259.5C261.623 281.5 263.492 281.873 265.107 282.621C266.722 283.369 267.963 284.43 268.831 285.806C269.728 287.152 270.176 288.722 270.176 290.516V292.939C270.176 294.793 269.728 296.438 268.831 297.873C267.963 299.308 266.737 300.415 265.152 301.193C263.567 301.97 261.728 302.359 259.635 302.359H255.328ZM284.621 302.359C282.527 302.359 280.673 301.91 279.058 301.013C277.444 300.086 276.187 298.785 275.29 297.11C274.393 295.436 273.945 293.507 273.945 291.324V281.275C273.945 279.092 274.378 277.163 275.245 275.489C276.143 273.814 277.399 272.528 279.014 271.631C280.628 270.704 282.498 270.24 284.621 270.24H289.376C291.439 270.24 293.264 270.704 294.849 271.631C296.434 272.528 297.66 273.814 298.527 275.489C299.424 277.163 299.873 279.092 299.873 281.275V291.324C299.873 293.507 299.439 295.436 298.572 297.11C297.705 298.785 296.479 300.086 294.894 301.013C293.309 301.91 291.469 302.359 289.376 302.359H284.621ZM289.286 296.886C290.602 296.886 291.649 296.393 292.426 295.406C293.234 294.389 293.637 293.058 293.637 291.413V281.186C293.637 279.541 293.234 278.225 292.426 277.238C291.649 276.221 290.602 275.713 289.286 275.713H284.711C283.335 275.713 282.228 276.221 281.391 277.238C280.554 278.225 280.135 279.541 280.135 281.186V291.413C280.135 293.058 280.554 294.389 281.391 295.406C282.228 296.393 283.335 296.886 284.711 296.886H289.286ZM314.848 302.359C312.754 302.359 310.9 301.91 309.285 301.013C307.671 300.086 306.414 298.785 305.517 297.11C304.62 295.436 304.172 293.507 304.172 291.324V281.275C304.172 279.092 304.605 277.163 305.472 275.489C306.37 273.814 307.626 272.528 309.241 271.631C310.855 270.704 312.725 270.24 314.848 270.24H319.603C321.666 270.24 323.491 270.704 325.076 271.631C326.661 272.528 327.887 273.814 328.754 275.489C329.651 277.163 330.1 279.092 330.1 281.275V291.324C330.1 293.507 329.666 295.436 328.799 297.11C327.932 298.785 326.706 300.086 325.121 301.013C323.536 301.91 321.696 302.359 319.603 302.359H314.848ZM319.513 296.886C320.829 296.886 321.876 296.393 322.653 295.406C323.461 294.389 323.864 293.058 323.864 291.413V281.186C323.864 279.541 323.461 278.225 322.653 277.238C321.876 276.221 320.829 275.713 319.513 275.713H314.938C313.562 275.713 312.455 276.221 311.618 277.238C310.781 278.225 310.362 279.541 310.362 281.186V291.413C310.362 293.058 310.781 294.389 311.618 295.406C312.455 296.393 313.562 296.886 314.938 296.886H319.513Z" fill="#16181F"/>
<path d="M90.3809 350.983V341.834" stroke="#282C38" stroke-width="2.56"/>
<path d="M100.234 350.984V344.65" stroke="#282C38" stroke-width="2.56"/>
<path d="M80.5273 350.984V344.65" stroke="#282C38" stroke-width="2.56"/>
<path d="M138.428 350.983V341.834" stroke="#282C38" stroke-width="2.56"/>
<path d="M148.281 350.984V344.65" stroke="#282C38" stroke-width="2.56"/>
<path d="M128.574 350.984V344.65" stroke="#282C38" stroke-width="2.56"/>
<path d="M430.139 354.109V344.96" stroke="#282C38" stroke-width="2.56"/>
<path d="M439.992 354.109V347.775" stroke="#282C38" stroke-width="2.56"/>
<path d="M420.285 354.109V347.775" stroke="#282C38" stroke-width="2.56"/>
</g>
<defs>
<clipPath id="clip0_694_62445">
<rect width="576" height="384" fill="white" transform="translate(0.5)"/>
</clipPath>
</defs>
</svg>
