<svg width="484" height="323" viewBox="0 0 484 323" fill="none" xmlns="http://www.w3.org/2000/svg">
<g clip-path="url(#clip0_694_62488)">
<path d="M198.155 187.917C203.725 208.474 256.72 236.494 300.319 205.217C320.596 190.669 314.808 179.569 326.897 158.418C334.104 145.812 346.527 133.972 346.201 119.22C345.922 106.486 339.65 94.7742 330.849 88.718C311.054 75.0976 279.098 71.8568 261.113 109.579C243.129 147.301 183.795 134.897 198.155 187.917Z" fill="#282C38"/>
<path d="M271.042 100.968C247.413 115.082 222.867 130.33 198.515 132.474C173.395 134.691 172.642 126.218 175.985 114.736C179.329 103.254 196.832 80.2428 230.902 77.704C264.981 75.1636 293.153 87.7568 271.042 100.968Z" fill="#282C38"/>
<path d="M242.452 75.4077L235.34 87.8303L235.171 88.1258C234.315 89.6445 234.724 91.5561 236.123 92.5741L245.783 99.6101C245.944 99.7264 246.089 99.8529 246.223 99.9875C247.135 100.948 247.442 102.375 246.909 103.613C243.87 110.956 242.317 118.811 242.359 126.754C242.354 127.076 242.308 127.395 242.223 127.705C241.891 128.848 240.956 129.766 239.774 130.071L230.096 132.468C228.824 132.794 227.869 133.829 227.593 135.057C227.521 135.432 227.489 135.842 227.543 136.254L229.519 150.74C229.757 152.519 231.344 153.844 233.156 153.744L246.401 153.067C247.04 153.035 247.675 153.186 248.232 153.502C248.788 153.818 249.243 154.287 249.543 154.853C250.454 156.508 251.42 158.125 252.489 159.714C254.455 162.638 256.678 165.38 259.13 167.908L259.141 167.922C260.147 168.959 260.412 170.479 259.806 171.786L254.132 184.012L253.853 184.63C253.11 186.193 253.701 188.104 255.227 188.975L267.902 196.265C269.452 197.142 271.424 196.732 272.472 195.286L280.297 184.529C281.165 183.331 282.702 182.824 284.089 183.278C289.991 185.101 296.146 186.019 302.329 185.956C303.094 185.954 303.837 186.21 304.44 186.681C305.043 187.153 305.47 187.813 305.653 188.557L308.523 200.031C308.731 200.866 309.241 201.595 309.953 202.076C310.666 202.558 311.532 202.758 312.384 202.639L326.919 200.663C328.637 200.424 329.883 198.907 329.791 197.193L329.015 181.607C328.943 180.285 329.635 179.041 330.789 178.389C332.225 177.586 333.626 176.723 334.988 175.8C337.537 174.084 339.952 172.175 342.212 170.091C343.212 169.152 344.676 168.899 345.915 169.495L360.589 176.336C361.365 176.696 362.248 176.752 363.063 176.494C363.879 176.235 364.568 175.68 364.995 174.938L372.304 162.197C373.068 160.846 372.813 159.134 371.73 158.069C371.617 157.962 371.494 157.841 371.351 157.752L359.431 149.056C358.32 148.253 357.781 146.88 358.087 145.547C358.111 145.43 358.134 145.311 358.179 145.198C358.294 144.855 358.406 144.533 358.49 144.171C359.764 140.108 360.6 135.919 360.981 131.677C361.085 130.257 362.124 129.067 363.529 128.732L375.637 125.694C377.354 125.271 378.472 123.599 378.228 121.841L377.794 118.62L376.25 107.38C376.02 105.615 374.464 104.334 372.681 104.412L359.633 105.078C358.24 105.161 356.971 104.34 356.416 103.058C354.934 99.6229 353.136 96.3331 351.045 93.2314C349.48 90.9083 347.753 88.6992 345.877 86.6206L347.071 84.0571L351.949 73.5321C352.566 72.2353 352.269 70.6994 351.273 69.738C351.066 69.5284 350.829 69.351 350.569 69.2115L337.814 61.8519C336.297 60.9949 334.384 61.4266 333.356 62.8155L328.022 70.1762C327.12 71.4176 325.451 71.9091 324.028 71.3384C318.145 68.9698 311.923 67.5509 305.595 67.1346C304.101 67.0404 302.862 66.0159 302.539 64.599L298.918 50.0947C298.719 49.311 298.239 48.628 297.569 48.1756C296.899 47.7233 296.087 47.5332 295.286 47.6415L280.596 49.6619C278.854 49.8982 277.594 51.4223 277.697 53.1508L278.508 69.3665C278.591 70.7613 277.803 72.0501 276.527 72.6444C273.805 73.909 271.156 75.4298 268.571 77.1734C267.192 78.1023 265.853 79.0879 264.557 80.1278C264.061 80.5225 263.466 80.7725 262.837 80.8502C262.208 80.9279 261.571 80.8303 260.994 80.5682L246.923 74.0172C246.139 73.6458 245.245 73.5826 244.417 73.8402C243.589 74.0977 242.888 74.6572 242.452 75.4077ZM273.303 141.237C267.846 130.784 268.324 119.739 272.937 111.765C289.153 83.8401 328.429 91.1308 333.841 122.516C335.126 130.567 333.173 139.145 326.562 146.946C311.106 164.993 283.75 161.209 273.303 141.237ZM155.825 109.517L146.57 113.839L146.349 113.942C145.226 114.476 144.679 115.761 145.077 116.93L147.824 125.015C147.87 125.149 147.903 125.282 147.925 125.416C148.063 126.352 147.655 127.312 146.836 127.815C142.047 130.843 137.911 134.798 134.671 139.448C134.536 139.633 134.378 139.801 134.201 139.946C133.867 140.21 133.47 140.384 133.049 140.449C132.628 140.514 132.198 140.469 131.799 140.319L125.166 137.733C124.741 137.574 124.281 137.535 123.836 137.62C123.391 137.704 122.978 137.91 122.641 138.213C122.432 138.41 122.256 138.639 122.12 138.892L117.321 148.16C116.728 149.296 117.11 150.723 118.208 151.411L126.218 156.47C126.604 156.714 126.912 157.064 127.107 157.478C127.302 157.891 127.375 158.352 127.317 158.806C127.165 160.151 127.072 161.503 127.039 162.857C126.985 165.373 127.156 167.888 127.548 170.374L127.549 170.386C127.63 170.88 127.558 171.387 127.344 171.839C127.129 172.291 126.782 172.666 126.349 172.915L118.013 177.715L117.596 177.96C116.52 178.567 116.08 179.926 116.613 181.062L121.015 190.537C121.559 191.686 122.878 192.259 124.084 191.847L133.071 188.791C134.071 188.449 135.176 188.786 135.799 189.622C138.495 193.116 141.71 196.187 145.345 198.696C145.792 199.01 146.12 199.465 146.278 199.989C146.436 200.512 146.414 201.073 146.216 201.583L143.176 209.461C142.954 210.035 142.952 210.67 143.17 211.244C143.388 211.819 143.811 212.293 144.357 212.574L153.653 217.405C154.754 217.973 156.105 217.601 156.755 216.563L162.707 207.147C162.954 206.755 163.306 206.439 163.722 206.236C164.139 206.033 164.604 205.951 165.065 205.999C166.223 206.121 167.396 206.194 168.58 206.217C170.773 206.265 172.967 206.145 175.142 205.859C176.112 205.724 177.07 206.179 177.548 207.036L183.302 217.072C183.607 217.602 184.099 217.998 184.681 218.183C185.263 218.368 185.894 218.328 186.448 218.07L195.949 213.644C196.434 213.413 196.829 213.028 197.075 212.55C197.321 212.073 197.404 211.527 197.311 210.998C197.289 210.889 197.267 210.768 197.22 210.657L193.836 200.673C193.518 199.747 193.768 198.723 194.494 198.071C194.556 198.013 194.618 197.953 194.691 197.905C194.899 197.753 195.097 197.612 195.294 197.434C197.708 195.588 199.917 193.487 201.882 191.168C202.527 190.382 203.623 190.115 204.58 190.498L212.894 193.711C214.071 194.172 215.411 193.655 215.991 192.53L217.062 190.471L220.779 183.274C221.37 182.149 220.988 180.762 219.916 180.073L212.026 175.089C211.179 174.563 210.776 173.561 210.979 172.585C211.525 169.97 211.828 167.309 211.882 164.638C211.923 162.637 211.823 160.637 211.582 158.651L213.333 157.646L220.504 153.512C220.934 153.27 221.278 152.9 221.486 152.453C221.695 152.006 221.759 151.504 221.669 151.019C221.635 150.812 221.569 150.61 221.475 150.422L217.055 140.874C216.521 139.749 215.228 139.214 214.057 139.601L207.919 141.701C206.882 142.054 205.706 141.653 205.11 140.734C202.65 136.929 199.601 133.539 196.079 130.69C195.246 130.02 194.944 128.912 195.337 127.952L199.184 117.996C199.39 117.456 199.39 116.86 199.185 116.32C198.981 115.78 198.584 115.335 198.073 115.068L188.669 110.198C187.554 109.618 186.193 109.989 185.542 111.041L179.352 120.839C178.828 121.687 177.838 122.115 176.849 121.936C174.741 121.553 172.569 121.35 170.344 121.303C169.158 121.278 167.972 121.302 166.787 121.374C166.336 121.401 165.886 121.302 165.487 121.088C165.088 120.875 164.756 120.555 164.527 120.165L159.006 110.547C158.701 110.007 158.205 109.602 157.616 109.412C157.027 109.221 156.388 109.258 155.825 109.517ZM146.78 160.644C147.89 152.295 152.708 146.046 158.678 143.291C179.618 133.67 199.546 154.099 189.807 174.645C187.248 179.873 182.583 184.076 175.519 185.907C159.082 190.075 144.67 176.602 146.78 160.644ZM219.554 202.333L214.548 207.359L214.429 207.479C214.136 207.774 213.962 208.167 213.941 208.582C213.919 208.998 214.05 209.406 214.31 209.731L218.026 214.347C218.088 214.423 218.141 214.503 218.188 214.584C218.501 215.162 218.464 215.885 218.049 216.408C215.647 219.525 213.892 223.091 212.886 226.896C212.842 227.049 212.779 227.196 212.698 227.333C212.543 227.585 212.326 227.792 212.067 227.935C211.808 228.078 211.516 228.152 211.221 228.149L206.28 228.046C205.965 228.043 205.656 228.127 205.386 228.289C205.116 228.45 204.895 228.682 204.748 228.961C204.658 229.139 204.598 229.33 204.57 229.528L203.647 236.716C203.593 237.146 203.701 237.58 203.952 237.934C204.202 238.287 204.576 238.533 204.999 238.624L211.426 240.012C211.736 240.079 212.021 240.233 212.246 240.456C212.472 240.68 212.629 240.963 212.7 241.272C212.922 242.182 213.176 243.081 213.483 243.98C214.047 245.633 214.757 247.233 215.604 248.76L215.607 248.768C215.778 249.071 215.852 249.418 215.82 249.764C215.788 250.11 215.651 250.438 215.427 250.704L211.134 255.821L210.921 256.081C210.651 256.401 210.512 256.81 210.529 257.229C210.547 257.647 210.722 258.043 211.018 258.338L216.145 263.466C216.773 264.085 217.77 264.145 218.458 263.588L223.59 259.451C223.866 259.227 224.206 259.095 224.561 259.076C224.916 259.056 225.268 259.15 225.567 259.343C228.157 260.982 230.985 262.21 233.951 262.982C234.317 263.08 234.64 263.298 234.868 263.602C235.096 263.906 235.215 264.277 235.207 264.657L235.1 270.519C235.092 270.946 235.242 271.36 235.521 271.683C235.8 272.006 236.188 272.214 236.611 272.266L243.823 273.199C244.233 273.252 244.647 273.148 244.985 272.909C245.322 272.671 245.558 272.314 245.645 271.91L247.285 264.35C247.352 264.036 247.506 263.746 247.73 263.514C247.953 263.283 248.237 263.118 248.548 263.039C249.339 262.841 250.121 262.608 250.892 262.343C252.334 261.851 253.736 261.25 255.086 260.544C255.686 260.224 256.419 260.292 256.935 260.738L263.076 265.909C263.401 266.181 263.816 266.322 264.24 266.304C264.663 266.286 265.065 266.109 265.365 265.809L270.507 260.656C270.767 260.39 270.934 260.045 270.98 259.674C271.027 259.304 270.951 258.929 270.764 258.606C270.724 258.54 270.681 258.466 270.624 258.405L266.041 252.702C265.612 252.175 265.532 251.448 265.85 250.849C265.876 250.797 265.903 250.742 265.939 250.694C266.038 250.545 266.134 250.405 266.22 250.243C267.354 248.463 268.294 246.566 269.024 244.585C269.257 243.919 269.908 243.483 270.624 243.505L276.81 243.616C277.687 243.636 278.438 242.98 278.548 242.107L278.755 240.509L279.466 234.93C279.584 234.056 279.004 233.242 278.141 233.048L271.811 231.68C271.133 231.54 270.632 230.983 270.531 230.298C270.265 228.462 269.829 226.655 269.228 224.901C268.779 223.587 268.237 222.306 267.607 221.068L268.51 219.996L272.202 215.589C272.424 215.329 272.56 215.005 272.59 214.664C272.62 214.323 272.542 213.981 272.368 213.686C272.298 213.559 272.206 213.447 272.099 213.343L266.944 208.172C266.328 207.565 265.357 207.525 264.686 208.057L261.183 210.89C260.592 211.368 259.729 211.387 259.122 210.93C256.611 209.036 253.817 207.553 250.842 206.535C250.139 206.297 249.678 205.647 249.706 204.927L249.845 197.517C249.85 197.116 249.709 196.727 249.446 196.424C249.184 196.121 248.82 195.925 248.423 195.873L241.131 194.941C240.267 194.829 239.467 195.396 239.293 196.237L237.59 204.102C237.45 204.78 236.906 205.296 236.219 205.415C234.753 205.668 233.289 206.054 231.827 206.554C231.047 206.821 230.279 207.119 229.525 207.449C229.236 207.574 228.919 207.617 228.608 207.573C228.297 207.529 228.005 207.4 227.762 207.2L221.873 202.245C221.546 201.966 221.126 201.82 220.697 201.837C220.267 201.853 219.859 202.03 219.554 202.333ZM225.828 237.828C224.564 232.119 226.218 226.895 229.454 223.674C240.818 212.405 258.675 220.972 257.216 236.692C256.793 240.712 254.752 244.565 250.581 247.444C240.856 254.084 228.251 248.736 225.828 237.828Z" fill="#00CCCC"/>
<path d="M335.494 210.985L335.637 218.344L335.642 218.519C335.651 218.95 335.819 219.362 336.113 219.677C336.407 219.992 336.807 220.188 337.236 220.226L343.355 220.767C343.457 220.776 343.554 220.792 343.648 220.818C344.303 221 344.817 221.547 344.908 222.234C345.502 226.271 346.898 230.148 349.012 233.637C349.098 233.783 349.16 233.937 349.203 234.092C349.279 234.389 349.277 234.702 349.197 234.998C349.117 235.294 348.962 235.565 348.747 235.784L345.112 239.406C344.884 239.639 344.724 239.931 344.65 240.249C344.575 240.567 344.59 240.9 344.691 241.21C344.758 241.396 344.853 241.584 344.986 241.752L349.684 247.612C349.966 247.962 350.368 248.193 350.812 248.26C351.256 248.327 351.709 248.224 352.081 247.973L357.745 244.165C358.019 243.981 358.338 243.879 358.667 243.871C358.996 243.863 359.32 243.949 359.602 244.118C362.003 245.535 364.585 246.615 367.278 247.33L367.286 247.334C367.634 247.424 367.947 247.618 368.182 247.891C368.417 248.164 368.562 248.503 368.599 248.861L369.327 255.75L369.368 256.096C369.453 256.982 370.219 257.666 371.122 257.646L378.642 257.494C379.557 257.469 380.318 256.767 380.4 255.853L381.011 249.039C381.042 248.671 381.189 248.322 381.43 248.043C381.671 247.763 381.995 247.568 382.354 247.484C385.443 246.725 388.396 245.493 391.107 243.829C391.444 243.626 391.84 243.542 392.23 243.59C392.62 243.638 392.983 243.816 393.261 244.095L397.554 248.391C397.867 248.704 398.284 248.891 398.725 248.914C399.167 248.937 399.602 248.796 399.946 248.518L405.836 243.796C406.17 243.527 406.391 243.143 406.456 242.719C406.52 242.295 406.424 241.862 406.186 241.506L401.728 234.844C401.542 234.567 401.437 234.243 401.425 233.909C401.413 233.576 401.494 233.245 401.66 232.955C402.866 230.846 403.821 228.603 404.507 226.273C404.7 225.593 405.28 225.094 405.983 225.029L414.263 224.154C414.7 224.107 415.104 223.898 415.396 223.568C415.687 223.237 415.844 222.81 415.837 222.37L415.697 214.82C415.686 214.433 415.548 214.061 415.306 213.76C415.063 213.458 414.728 213.245 414.352 213.153C414.274 213.135 414.188 213.115 414.102 213.113L406.547 212.44C405.844 212.38 405.244 211.917 405.028 211.249C405.007 211.191 404.986 211.134 404.977 211.071C404.937 210.889 404.901 210.718 404.842 210.537C404.331 208.409 403.594 206.342 402.642 204.372C402.314 203.718 402.457 202.919 402.988 202.398L407.527 197.852C408.172 197.211 408.223 196.177 407.652 195.467L406.609 194.162L402.958 189.619C402.391 188.901 401.366 188.75 400.6 189.257L395.02 193.008C394.427 193.414 393.651 193.389 393.068 192.971C390.333 191.008 387.297 189.504 384.079 188.52L383.929 187.074L383.3 181.144C383.266 180.79 383.122 180.456 382.889 180.188C382.656 179.92 382.345 179.732 381.999 179.65C381.852 179.613 381.701 179.597 381.55 179.604L373.98 179.742C373.084 179.765 372.354 180.464 372.268 181.347L371.858 186.004C371.788 186.789 371.182 187.449 370.402 187.575C367.181 188.09 364.062 189.113 361.161 190.606C360.477 190.96 359.659 190.838 359.143 190.299L353.716 184.867C353.42 184.575 353.028 184.401 352.613 184.379C352.198 184.357 351.789 184.489 351.465 184.749L345.518 189.532C344.812 190.096 344.659 191.103 345.161 191.838L349.801 198.767C350.205 199.361 350.198 200.136 349.793 200.736C348.926 202.015 348.158 203.387 347.479 204.841C347.116 205.615 346.786 206.404 346.489 207.206C346.374 207.511 346.178 207.779 345.921 207.98C345.664 208.181 345.357 208.307 345.033 208.345L337.096 209.185C336.653 209.231 336.243 209.441 335.947 209.774C335.65 210.107 335.489 210.539 335.494 210.985ZM366.49 231.817C364.756 230.757 363.13 229.343 361.673 227.546C361.359 227.169 361.055 226.71 360.759 226.214C359.507 224.061 358.577 221.097 358.545 218.927C358.323 202.326 377.574 195.132 388.249 207.527C388.422 207.732 388.595 207.938 388.764 208.152C390.355 210.136 391.694 213.869 391.755 216.408C391.785 217.684 391.697 218.96 391.491 220.22C389.44 232.267 376.373 237.849 366.49 231.817Z" fill="#282C38"/>
<path d="M67.1552 216.711L66.8175 223.171L66.8105 223.325C66.7916 223.703 66.912 224.076 67.149 224.372C67.3859 224.667 67.723 224.866 68.0964 224.929L73.4085 225.817C73.4967 225.832 73.5812 225.853 73.6618 225.882C74.2227 226.085 74.6368 226.599 74.6728 227.208C74.94 230.789 75.9156 234.281 77.543 237.482C77.6091 237.615 77.6537 237.755 77.6812 237.894C77.729 238.159 77.7077 238.432 77.6195 238.686C77.5312 238.941 77.3789 239.168 77.1773 239.347L73.7731 242.275C73.5587 242.465 73.4004 242.711 73.3155 242.985C73.2307 243.258 73.2225 243.55 73.2918 243.829C73.3392 243.996 73.4096 244.167 73.5155 244.323L77.252 249.778C77.4745 250.103 77.811 250.333 78.1948 250.422C78.5786 250.51 78.9817 250.451 79.3241 250.256L84.5126 247.301C84.7634 247.159 85.0498 247.091 85.3378 247.106C85.6259 247.121 85.9036 247.218 86.1383 247.386C88.1447 248.789 90.333 249.911 92.6427 250.72L92.6491 250.724C92.9485 250.827 93.2094 251.019 93.3973 251.274C93.5852 251.529 93.6912 251.835 93.701 252.152L93.9049 258.239L93.9183 258.546C93.9294 258.927 94.083 259.291 94.3487 259.564C94.6145 259.838 94.973 260.002 95.3536 260.023L101.933 260.399C102.321 260.419 102.702 260.296 103.005 260.052C103.307 259.809 103.509 259.462 103.572 259.079L104.535 253.147C104.585 252.828 104.734 252.532 104.963 252.303C105.191 252.074 105.487 251.924 105.806 251.874C108.551 251.419 111.209 250.538 113.684 249.263C114.316 248.945 115.082 249.096 115.549 249.642L119.03 253.697C119.282 253.993 119.634 254.184 120.018 254.235C120.403 254.285 120.792 254.191 121.112 253.97L126.555 250.23C126.864 250.015 127.082 249.692 127.165 249.325C127.248 248.958 127.191 248.573 127.005 248.246L123.528 242.104C123.383 241.85 123.312 241.559 123.322 241.266C123.333 240.973 123.425 240.688 123.588 240.444C124.775 238.676 125.751 236.774 126.495 234.778C126.596 234.494 126.78 234.247 127.024 234.07C127.269 233.893 127.561 233.794 127.862 233.788L135.152 233.581C135.537 233.569 135.904 233.413 136.18 233.143C136.456 232.873 136.62 232.509 136.64 232.124L136.992 225.496C137.006 225.156 136.91 224.82 136.717 224.54C136.524 224.26 136.245 224.051 135.922 223.944C135.854 223.923 135.781 223.899 135.706 223.892L129.147 222.79C128.848 222.744 128.57 222.61 128.348 222.406C128.125 222.202 127.967 221.937 127.894 221.644C127.88 221.591 127.864 221.54 127.861 221.485C127.837 221.322 127.817 221.17 127.777 221.007C127.464 219.107 126.949 217.245 126.241 215.454C125.995 214.859 126.17 214.168 126.668 213.747L130.92 210.07C131.523 209.551 131.633 208.648 131.178 207.986L130.349 206.772L127.445 202.542C127.227 202.222 126.896 201.995 126.519 201.907C126.141 201.818 125.744 201.875 125.407 202.066L120.296 204.978C119.752 205.293 119.076 205.218 118.592 204.812C117.299 203.725 115.908 202.76 114.437 201.929C113.337 201.307 112.194 200.764 111.017 200.303L110.977 199.025L110.801 193.784C110.793 193.472 110.689 193.169 110.502 192.919C110.315 192.669 110.055 192.483 109.757 192.387C109.632 192.345 109.501 192.321 109.368 192.316L102.745 191.925C101.961 191.885 101.279 192.448 101.148 193.216L100.498 197.27C100.387 197.955 99.8166 198.492 99.1272 198.55C96.2817 198.783 93.4916 199.469 90.8621 200.583C90.242 200.846 89.5354 200.683 89.1181 200.176L84.7175 195.048C84.4793 194.772 84.1479 194.593 83.7864 194.546C83.425 194.499 83.0588 194.586 82.7578 194.792L77.2612 198.583C76.9475 198.797 76.7261 199.121 76.6415 199.492C76.5568 199.862 76.6151 200.25 76.8046 200.58L80.4228 206.968C80.5767 207.235 80.6466 207.543 80.6234 207.851C80.6002 208.158 80.4849 208.452 80.2926 208.693C79.4427 209.778 78.6805 210.929 78.013 212.135C77.6473 212.789 77.3091 213.459 76.9993 214.141C76.8804 214.401 76.6919 214.622 76.4547 214.781C76.2176 214.94 75.941 215.03 75.6559 215.041L68.668 215.241C68.2778 215.252 67.9058 215.409 67.6256 215.681C67.3455 215.953 67.1776 216.321 67.1552 216.711ZM92.9288 237.068C91.4805 236.021 90.1485 234.672 88.9885 232.999C88.7379 232.646 88.5013 232.224 88.2732 231.769C87.3144 229.797 86.6889 227.136 86.7965 225.231C87.6462 210.664 104.919 205.659 113.468 217.246C113.605 217.439 113.744 217.631 113.878 217.83C115.143 219.676 116.079 223.039 115.973 225.269C115.919 226.389 115.762 227.502 115.503 228.592C112.954 239.014 101.185 243.024 92.9288 237.068Z" fill="#282C38"/>
<path d="M93.3321 152.399C90.6635 152.399 88.5002 154.429 88.5002 156.933C88.5002 159.437 90.6635 161.467 93.3321 161.467C96.0007 161.467 98.1641 159.437 98.1641 156.933C98.1641 154.429 96.0007 152.399 93.3321 152.399Z" fill="#1C1F28"/>
<path d="M400.457 140.911C397.955 140.911 395.927 143.077 395.927 145.748C395.927 148.419 397.955 150.585 400.457 150.585C402.958 150.585 404.986 148.419 404.986 145.748C404.986 143.077 402.958 140.911 400.457 140.911Z" fill="#1C1F28"/>
<path d="M170.643 223.137C167.974 223.137 165.811 225.303 165.811 227.974C165.811 230.645 167.974 232.811 170.643 232.811C173.311 232.811 175.475 230.645 175.475 227.974C175.475 225.303 173.311 223.137 170.643 223.137Z" fill="#1C1F28"/>
<path d="M214.608 87.9279C211.154 89.924 206.738 88.7394 204.744 85.282C202.75 81.8245 203.933 77.4035 207.387 75.4073C210.841 73.4112 215.257 74.5958 217.251 78.0532C219.245 81.5107 218.062 85.9317 214.608 87.9279Z" fill="#1C1F28"/>
<path d="M305.633 229.184C309.136 229.184 311.975 226.477 311.975 223.138C311.975 219.799 309.136 217.092 305.633 217.092C302.13 217.092 299.291 219.799 299.291 223.138C299.291 226.477 302.13 229.184 305.633 229.184Z" fill="#00CCCC"/>
</g>
<defs>
<clipPath id="clip0_694_62488">
<rect width="484" height="323" fill="white"/>
</clipPath>
</defs>
</svg>
