<svg width="48" height="48" viewBox="0 0 48 48" fill="none" xmlns="http://www.w3.org/2000/svg">
<g clip-path="url(#clip0_488_24412)">
<path d="M35.8071 27.3376C35.6322 27.168 35.3982 27.0732 35.1546 27.0732C34.911 27.0732 34.677 27.168 34.5021 27.3376L30.9256 30.8041C30.8372 30.8898 30.7666 30.992 30.7177 31.105C30.6688 31.218 30.6427 31.3395 30.6407 31.4626C30.6388 31.5857 30.6612 31.708 30.7065 31.8225C30.7518 31.9369 30.8193 32.0413 30.905 32.1297C30.9906 32.2182 31.0929 32.2888 31.2059 32.3377C31.3189 32.3866 31.4404 32.4127 31.5635 32.4146C31.6866 32.4166 31.8089 32.3942 31.9234 32.3489C32.0378 32.3035 32.1422 32.2361 32.2306 32.1504L34.2171 30.2251V36.677C34.2171 36.9256 34.3159 37.1641 34.4917 37.3399C34.6675 37.5157 34.906 37.6145 35.1546 37.6145C35.4032 37.6145 35.6417 37.5157 35.8175 37.3399C35.9933 37.1641 36.0921 36.9256 36.0921 36.677V30.2251L38.0786 32.1505C38.2571 32.3236 38.4971 32.4186 38.7457 32.4147C38.9943 32.4109 39.2312 32.3084 39.4042 32.1298C39.5773 31.9513 39.6723 31.7113 39.6685 31.4627C39.6646 31.2141 39.5621 30.9772 39.3836 30.8042L35.8071 27.3376Z" fill="#00CCCC"/>
<path d="M43.7813 22.735V6.5625C43.7813 4.49475 42.0688 2.8125 40.0011 2.8125H3.75C2.75578 2.81362 1.8026 3.20906 1.09958 3.91208C0.396563 4.6151 0.00111661 5.56828 0 6.5625L0 31.398C0.000813935 32.3931 0.395901 33.3473 1.09875 34.0517C1.8016 34.7561 2.75493 35.1532 3.75 35.1562H22.5306C23.8331 40.875 28.9766 45.1916 35.1058 45.1916C42.2157 45.1916 48.0152 39.4053 48.0152 32.2954C48.0151 28.5086 46.3125 25.0961 43.7813 22.735ZM3.75 4.6875H40.0011C40.5013 4.6869 40.9817 4.88331 41.3383 5.23421C41.6948 5.58511 41.8989 6.06229 41.9063 6.5625V21.3242C39.8679 20.063 37.5178 19.3962 35.1209 19.399C34.3957 19.3991 33.6718 19.4598 32.9568 19.5804C31.9335 18.9491 30.7388 18.6526 29.5391 18.7323C28.3393 18.812 27.1943 19.2638 26.2635 20.0249L19.6803 25.5187C19.0806 26.0159 18.3442 26.3195 17.5684 26.3894C16.7926 26.4593 16.0138 26.2922 15.3349 25.9102L1.875 18.3679V6.5625C1.8756 6.0654 2.07333 5.58883 2.42483 5.23733C2.77633 4.88583 3.2529 4.6881 3.75 4.6875ZM3.75 33.2812C3.25205 33.2788 2.77533 33.0793 2.424 32.7264C2.07267 32.3735 1.87529 31.8959 1.875 31.398V20.5172L14.4188 27.5468C15.4275 28.1145 16.5847 28.3626 17.7375 28.2583C18.8903 28.1539 19.9842 27.702 20.8746 26.9624L27.4558 21.4687C28.0859 20.9521 28.8631 20.6478 29.6765 20.5995C27.448 21.637 25.5619 23.2887 24.2396 25.3608C22.9172 27.4329 22.2136 29.8393 22.2113 32.2974C22.2113 32.627 22.2238 32.9062 22.2488 33.2812H3.75ZM35.1058 43.3125C32.9264 43.3125 30.7959 42.6663 28.9838 41.4555C27.1717 40.2446 25.7593 38.5237 24.9253 36.5102C24.0912 34.4966 23.873 32.281 24.2982 30.1435C24.7233 28.0059 25.7728 26.0425 27.3139 24.5014C28.855 22.9603 30.8184 21.9108 32.956 21.4857C35.0935 21.0605 37.3091 21.2787 39.3227 22.1127C41.3362 22.9468 43.0572 24.3592 44.268 26.1713C45.4788 27.9834 46.125 30.1139 46.125 32.2933C46.1217 35.2148 44.9597 38.0156 42.8939 40.0814C40.8281 42.1472 38.0273 43.3092 35.1058 43.3125Z" fill="#00CCCC"/>
<path d="M15.6215 19.3222C18.9947 19.3222 21.739 16.6801 21.739 13.4326C21.739 10.1851 18.9947 7.54297 15.6215 7.54297C12.2483 7.54297 9.50391 10.1851 9.50391 13.4326C9.50391 16.6801 12.2483 19.3222 15.6215 19.3222ZM15.6215 9.41797C17.9608 9.41797 19.864 11.219 19.864 13.4326C19.864 15.6463 17.9609 17.4472 15.6215 17.4472C13.282 17.4472 11.3789 15.6463 11.3789 13.4326C11.3789 11.219 13.2821 9.41797 15.6215 9.41797Z" fill="#00CCCC"/>
</g>
<defs>
<clipPath id="clip0_488_24412">
<rect width="48" height="48" fill="white"/>
</clipPath>
</defs>
</svg>
